ISO-10303-21;
HEADER;
/* Generated by software containing ST-Developer
 * from STEP Tools, Inc. (www.steptools.com) 
 */
/* OPTION: using custom renumber hook */

FILE_DESCRIPTION(
/* description */ ('STEP AP242 Edition 2',
'CAx-IF Rec.Pracs.---Representation and Presentation of Product Manufa
cturing Information (PMI)---4.0---2014-10-13',
'CAx-IF Rec.Pracs.---3D Tessellated Geometry---0.4---2014-09-14','2;1',
'CAx-IF Rec.Pracs.---User Defined Attributes---1.5---2016-08-15'),
/* implementation_level */ '2;1');

FILE_NAME(
/* name */ 'CartInsert',
/* time_stamp */ '2026-09-18T13:06:40Z',
/* author */ (''),
/* organization */ (''),
/* preprocessor_version */ 'ST-DEVELOPER v20',
/* originating_system */ 'ONSHAPE BY PTC INC, 1.220',
/* authorisation */ '  ');

FILE_SCHEMA (('AP242_MANAGED_MODEL_BASED_3D_ENGINEERING_MIM_LF { 1 0 10303 442 3 1 4 }'));
ENDSEC;

DATA;
#10=SHAPE_REPRESENTATION_RELATIONSHIP('','',#492,#11);
#11=ADVANCED_BREP_SHAPE_REPRESENTATION('',(#490),#782);
#12=CYLINDRICAL_SURFACE('',#517,0.04572);
#13=CYLINDRICAL_SURFACE('',#520,0.0381);
#14=CIRCLE('',#499,0.0381);
#15=CIRCLE('',#500,0.04572);
#16=CIRCLE('',#518,0.04572);
#17=CIRCLE('',#521,0.0381);
#18=ORIENTED_EDGE('',*,*,#140,.F.);
#19=ORIENTED_EDGE('',*,*,#141,.F.);
#20=ORIENTED_EDGE('',*,*,#142,.F.);
#21=ORIENTED_EDGE('',*,*,#143,.F.);
#22=ORIENTED_EDGE('',*,*,#144,.F.);
#23=ORIENTED_EDGE('',*,*,#145,.F.);
#24=ORIENTED_EDGE('',*,*,#146,.F.);
#25=ORIENTED_EDGE('',*,*,#147,.F.);
#26=ORIENTED_EDGE('',*,*,#148,.F.);
#27=ORIENTED_EDGE('',*,*,#141,.T.);
#28=ORIENTED_EDGE('',*,*,#140,.T.);
#29=ORIENTED_EDGE('',*,*,#149,.F.);
#30=ORIENTED_EDGE('',*,*,#150,.F.);
#31=ORIENTED_EDGE('',*,*,#151,.F.);
#32=ORIENTED_EDGE('',*,*,#152,.F.);
#33=ORIENTED_EDGE('',*,*,#146,.T.);
#34=ORIENTED_EDGE('',*,*,#143,.T.);
#35=ORIENTED_EDGE('',*,*,#153,.F.);
#36=ORIENTED_EDGE('',*,*,#154,.F.);
#37=ORIENTED_EDGE('',*,*,#151,.T.);
#38=ORIENTED_EDGE('',*,*,#155,.F.);
#39=ORIENTED_EDGE('',*,*,#156,.T.);
#40=ORIENTED_EDGE('',*,*,#157,.F.);
#41=ORIENTED_EDGE('',*,*,#158,.F.);
#42=ORIENTED_EDGE('',*,*,#159,.F.);
#43=ORIENTED_EDGE('',*,*,#160,.F.);
#44=ORIENTED_EDGE('',*,*,#161,.F.);
#45=ORIENTED_EDGE('',*,*,#162,.F.);
#46=ORIENTED_EDGE('',*,*,#163,.F.);
#47=ORIENTED_EDGE('',*,*,#164,.F.);
#48=ORIENTED_EDGE('',*,*,#165,.F.);
#49=ORIENTED_EDGE('',*,*,#166,.F.);
#50=ORIENTED_EDGE('',*,*,#167,.F.);
#51=ORIENTED_EDGE('',*,*,#168,.F.);
#52=ORIENTED_EDGE('',*,*,#147,.T.);
#53=ORIENTED_EDGE('',*,*,#152,.T.);
#54=ORIENTED_EDGE('',*,*,#154,.T.);
#55=ORIENTED_EDGE('',*,*,#169,.F.);
#56=ORIENTED_EDGE('',*,*,#170,.F.);
#57=ORIENTED_EDGE('',*,*,#171,.F.);
#58=ORIENTED_EDGE('',*,*,#145,.T.);
#59=ORIENTED_EDGE('',*,*,#172,.F.);
#60=ORIENTED_EDGE('',*,*,#173,.F.);
#61=ORIENTED_EDGE('',*,*,#149,.T.);
#62=ORIENTED_EDGE('',*,*,#144,.T.);
#63=ORIENTED_EDGE('',*,*,#156,.F.);
#64=ORIENTED_EDGE('',*,*,#174,.F.);
#65=ORIENTED_EDGE('',*,*,#172,.T.);
#66=ORIENTED_EDGE('',*,*,#155,.T.);
#67=ORIENTED_EDGE('',*,*,#150,.T.);
#68=ORIENTED_EDGE('',*,*,#173,.T.);
#69=ORIENTED_EDGE('',*,*,#174,.T.);
#70=ORIENTED_EDGE('',*,*,#148,.T.);
#71=ORIENTED_EDGE('',*,*,#169,.T.);
#72=ORIENTED_EDGE('',*,*,#153,.T.);
#73=ORIENTED_EDGE('',*,*,#142,.T.);
#74=ORIENTED_EDGE('',*,*,#175,.T.);
#75=ORIENTED_EDGE('',*,*,#176,.T.);
#76=ORIENTED_EDGE('',*,*,#165,.T.);
#77=ORIENTED_EDGE('',*,*,#177,.F.);
#78=ORIENTED_EDGE('',*,*,#167,.T.);
#79=ORIENTED_EDGE('',*,*,#178,.T.);
#80=ORIENTED_EDGE('',*,*,#179,.T.);
#81=ORIENTED_EDGE('',*,*,#180,.T.);
#82=ORIENTED_EDGE('',*,*,#181,.T.);
#83=ORIENTED_EDGE('',*,*,#177,.T.);
#84=ORIENTED_EDGE('',*,*,#168,.T.);
#85=ORIENTED_EDGE('',*,*,#180,.F.);
#86=ORIENTED_EDGE('',*,*,#182,.F.);
#87=ORIENTED_EDGE('',*,*,#175,.F.);
#88=ORIENTED_EDGE('',*,*,#181,.F.);
#89=ORIENTED_EDGE('',*,*,#179,.F.);
#90=ORIENTED_EDGE('',*,*,#183,.T.);
#91=ORIENTED_EDGE('',*,*,#184,.T.);
#92=ORIENTED_EDGE('',*,*,#161,.T.);
#93=ORIENTED_EDGE('',*,*,#185,.F.);
#94=ORIENTED_EDGE('',*,*,#163,.T.);
#95=ORIENTED_EDGE('',*,*,#186,.T.);
#96=ORIENTED_EDGE('',*,*,#187,.T.);
#97=ORIENTED_EDGE('',*,*,#188,.T.);
#98=ORIENTED_EDGE('',*,*,#189,.T.);
#99=ORIENTED_EDGE('',*,*,#185,.T.);
#100=ORIENTED_EDGE('',*,*,#164,.T.);
#101=ORIENTED_EDGE('',*,*,#188,.F.);
#102=ORIENTED_EDGE('',*,*,#190,.F.);
#103=ORIENTED_EDGE('',*,*,#183,.F.);
#104=ORIENTED_EDGE('',*,*,#189,.F.);
#105=ORIENTED_EDGE('',*,*,#187,.F.);
#106=ORIENTED_EDGE('',*,*,#191,.T.);
#107=ORIENTED_EDGE('',*,*,#192,.T.);
#108=ORIENTED_EDGE('',*,*,#157,.T.);
#109=ORIENTED_EDGE('',*,*,#193,.F.);
#110=ORIENTED_EDGE('',*,*,#159,.T.);
#111=ORIENTED_EDGE('',*,*,#194,.T.);
#112=ORIENTED_EDGE('',*,*,#195,.T.);
#113=ORIENTED_EDGE('',*,*,#196,.T.);
#114=ORIENTED_EDGE('',*,*,#197,.T.);
#115=ORIENTED_EDGE('',*,*,#193,.T.);
#116=ORIENTED_EDGE('',*,*,#160,.T.);
#117=ORIENTED_EDGE('',*,*,#196,.F.);
#118=ORIENTED_EDGE('',*,*,#198,.F.);
#119=ORIENTED_EDGE('',*,*,#191,.F.);
#120=ORIENTED_EDGE('',*,*,#197,.F.);
#121=ORIENTED_EDGE('',*,*,#195,.F.);
#122=ORIENTED_EDGE('',*,*,#199,.T.);
#123=ORIENTED_EDGE('',*,*,#171,.T.);
#124=ORIENTED_EDGE('',*,*,#199,.F.);
#125=ORIENTED_EDGE('',*,*,#200,.T.);
#126=ORIENTED_EDGE('',*,*,#170,.T.);
#127=ORIENTED_EDGE('',*,*,#200,.F.);
#128=ORIENTED_EDGE('',*,*,#192,.F.);
#129=ORIENTED_EDGE('',*,*,#198,.T.);
#130=ORIENTED_EDGE('',*,*,#194,.F.);
#131=ORIENTED_EDGE('',*,*,#158,.T.);
#132=ORIENTED_EDGE('',*,*,#184,.F.);
#133=ORIENTED_EDGE('',*,*,#190,.T.);
#134=ORIENTED_EDGE('',*,*,#186,.F.);
#135=ORIENTED_EDGE('',*,*,#162,.T.);
#136=ORIENTED_EDGE('',*,*,#176,.F.);
#137=ORIENTED_EDGE('',*,*,#182,.T.);
#138=ORIENTED_EDGE('',*,*,#178,.F.);
#139=ORIENTED_EDGE('',*,*,#166,.T.);
#140=EDGE_CURVE('',#201,#202,#243,.T.);
#141=EDGE_CURVE('',#203,#201,#244,.T.);
#142=EDGE_CURVE('',#204,#203,#245,.T.);
#143=EDGE_CURVE('',#205,#204,#246,.T.);
#144=EDGE_CURVE('',#206,#205,#247,.T.);
#145=EDGE_CURVE('',#202,#206,#248,.T.);
#146=EDGE_CURVE('',#207,#201,#249,.T.);
#147=EDGE_CURVE('',#208,#207,#250,.T.);
#148=EDGE_CURVE('',#203,#208,#251,.T.);
#149=EDGE_CURVE('',#209,#202,#252,.T.);
#150=EDGE_CURVE('',#210,#209,#253,.T.);
#151=EDGE_CURVE('',#211,#210,#254,.T.);
#152=EDGE_CURVE('',#207,#211,#255,.T.);
#153=EDGE_CURVE('',#212,#204,#256,.T.);
#154=EDGE_CURVE('',#211,#212,#257,.T.);
#155=EDGE_CURVE('',#213,#210,#258,.T.);
#156=EDGE_CURVE('',#213,#205,#259,.T.);
#157=EDGE_CURVE('',#214,#215,#260,.T.);
#158=EDGE_CURVE('',#216,#214,#261,.T.);
#159=EDGE_CURVE('',#217,#216,#262,.T.);
#160=EDGE_CURVE('',#215,#217,#263,.T.);
#161=EDGE_CURVE('',#218,#219,#264,.T.);
#162=EDGE_CURVE('',#220,#218,#265,.T.);
#163=EDGE_CURVE('',#221,#220,#266,.T.);
#164=EDGE_CURVE('',#219,#221,#267,.T.);
#165=EDGE_CURVE('',#222,#223,#268,.T.);
#166=EDGE_CURVE('',#224,#222,#269,.T.);
#167=EDGE_CURVE('',#225,#224,#270,.T.);
#168=EDGE_CURVE('',#223,#225,#271,.T.);
#169=EDGE_CURVE('',#208,#212,#272,.T.);
#170=EDGE_CURVE('',#226,#226,#14,.T.);
#171=EDGE_CURVE('',#227,#227,#15,.T.);
#172=EDGE_CURVE('',#228,#206,#273,.T.);
#173=EDGE_CURVE('',#209,#228,#274,.T.);
#174=EDGE_CURVE('',#228,#213,#275,.T.);
#175=EDGE_CURVE('',#229,#230,#276,.T.);
#176=EDGE_CURVE('',#230,#222,#277,.T.);
#177=EDGE_CURVE('',#229,#223,#278,.T.);
#178=EDGE_CURVE('',#224,#231,#279,.T.);
#179=EDGE_CURVE('',#231,#232,#280,.T.);
#180=EDGE_CURVE('',#232,#225,#281,.T.);
#181=EDGE_CURVE('',#232,#229,#282,.T.);
#182=EDGE_CURVE('',#230,#231,#283,.T.);
#183=EDGE_CURVE('',#233,#234,#284,.T.);
#184=EDGE_CURVE('',#234,#218,#285,.T.);
#185=EDGE_CURVE('',#233,#219,#286,.T.);
#186=EDGE_CURVE('',#220,#235,#287,.T.);
#187=EDGE_CURVE('',#235,#236,#288,.T.);
#188=EDGE_CURVE('',#236,#221,#289,.T.);
#189=EDGE_CURVE('',#236,#233,#290,.T.);
#190=EDGE_CURVE('',#234,#235,#291,.T.);
#191=EDGE_CURVE('',#237,#238,#292,.T.);
#192=EDGE_CURVE('',#238,#214,#293,.T.);
#193=EDGE_CURVE('',#237,#215,#294,.T.);
#194=EDGE_CURVE('',#216,#239,#295,.T.);
#195=EDGE_CURVE('',#239,#240,#296,.T.);
#196=EDGE_CURVE('',#240,#217,#297,.T.);
#197=EDGE_CURVE('',#240,#237,#298,.T.);
#198=EDGE_CURVE('',#238,#239,#299,.T.);
#199=EDGE_CURVE('',#241,#241,#16,.F.);
#200=EDGE_CURVE('',#242,#242,#17,.F.);
#201=VERTEX_POINT('',#652);
#202=VERTEX_POINT('',#653);
#203=VERTEX_POINT('',#655);
#204=VERTEX_POINT('',#657);
#205=VERTEX_POINT('',#659);
#206=VERTEX_POINT('',#661);
#207=VERTEX_POINT('',#665);
#208=VERTEX_POINT('',#667);
#209=VERTEX_POINT('',#671);
#210=VERTEX_POINT('',#673);
#211=VERTEX_POINT('',#675);
#212=VERTEX_POINT('',#679);
#213=VERTEX_POINT('',#682);
#214=VERTEX_POINT('',#686);
#215=VERTEX_POINT('',#687);
#216=VERTEX_POINT('',#689);
#217=VERTEX_POINT('',#691);
#218=VERTEX_POINT('',#694);
#219=VERTEX_POINT('',#695);
#220=VERTEX_POINT('',#697);
#221=VERTEX_POINT('',#699);
#222=VERTEX_POINT('',#702);
#223=VERTEX_POINT('',#703);
#224=VERTEX_POINT('',#705);
#225=VERTEX_POINT('',#707);
#226=VERTEX_POINT('',#711);
#227=VERTEX_POINT('',#713);
#228=VERTEX_POINT('',#716);
#229=VERTEX_POINT('',#724);
#230=VERTEX_POINT('',#725);
#231=VERTEX_POINT('',#730);
#232=VERTEX_POINT('',#732);
#233=VERTEX_POINT('',#740);
#234=VERTEX_POINT('',#741);
#235=VERTEX_POINT('',#746);
#236=VERTEX_POINT('',#748);
#237=VERTEX_POINT('',#756);
#238=VERTEX_POINT('',#757);
#239=VERTEX_POINT('',#762);
#240=VERTEX_POINT('',#764);
#241=VERTEX_POINT('',#772);
#242=VERTEX_POINT('',#776);
#243=LINE('',#651,#300);
#244=LINE('',#654,#301);
#245=LINE('',#656,#302);
#246=LINE('',#658,#303);
#247=LINE('',#660,#304);
#248=LINE('',#662,#305);
#249=LINE('',#664,#306);
#250=LINE('',#666,#307);
#251=LINE('',#668,#308);
#252=LINE('',#670,#309);
#253=LINE('',#672,#310);
#254=LINE('',#674,#311);
#255=LINE('',#676,#312);
#256=LINE('',#678,#313);
#257=LINE('',#680,#314);
#258=LINE('',#681,#315);
#259=LINE('',#683,#316);
#260=LINE('',#685,#317);
#261=LINE('',#688,#318);
#262=LINE('',#690,#319);
#263=LINE('',#692,#320);
#264=LINE('',#693,#321);
#265=LINE('',#696,#322);
#266=LINE('',#698,#323);
#267=LINE('',#700,#324);
#268=LINE('',#701,#325);
#269=LINE('',#704,#326);
#270=LINE('',#706,#327);
#271=LINE('',#708,#328);
#272=LINE('',#709,#329);
#273=LINE('',#715,#330);
#274=LINE('',#717,#331);
#275=LINE('',#719,#332);
#276=LINE('',#723,#333);
#277=LINE('',#726,#334);
#278=LINE('',#727,#335);
#279=LINE('',#729,#336);
#280=LINE('',#731,#337);
#281=LINE('',#733,#338);
#282=LINE('',#735,#339);
#283=LINE('',#737,#340);
#284=LINE('',#739,#341);
#285=LINE('',#742,#342);
#286=LINE('',#743,#343);
#287=LINE('',#745,#344);
#288=LINE('',#747,#345);
#289=LINE('',#749,#346);
#290=LINE('',#751,#347);
#291=LINE('',#753,#348);
#292=LINE('',#755,#349);
#293=LINE('',#758,#350);
#294=LINE('',#759,#351);
#295=LINE('',#761,#352);
#296=LINE('',#763,#353);
#297=LINE('',#765,#354);
#298=LINE('',#767,#355);
#299=LINE('',#769,#356);
#300=VECTOR('',#530,1.);
#301=VECTOR('',#531,1.);
#302=VECTOR('',#532,1.);
#303=VECTOR('',#533,1.);
#304=VECTOR('',#534,1.);
#305=VECTOR('',#535,1.);
#306=VECTOR('',#538,1.);
#307=VECTOR('',#539,1.);
#308=VECTOR('',#540,1.);
#309=VECTOR('',#543,1.);
#310=VECTOR('',#544,1.);
#311=VECTOR('',#545,1.);
#312=VECTOR('',#546,1.);
#313=VECTOR('',#549,1.);
#314=VECTOR('',#550,1.);
#315=VECTOR('',#551,1.);
#316=VECTOR('',#552,1.);
#317=VECTOR('',#555,1.);
#318=VECTOR('',#556,1.);
#319=VECTOR('',#557,1.);
#320=VECTOR('',#558,1.);
#321=VECTOR('',#559,1.);
#322=VECTOR('',#560,1.);
#323=VECTOR('',#561,1.);
#324=VECTOR('',#562,1.);
#325=VECTOR('',#563,1.);
#326=VECTOR('',#564,1.);
#327=VECTOR('',#565,1.);
#328=VECTOR('',#566,1.);
#329=VECTOR('',#567,1.);
#330=VECTOR('',#574,1.);
#331=VECTOR('',#575,1.);
#332=VECTOR('',#578,1.);
#333=VECTOR('',#585,1.);
#334=VECTOR('',#586,1.);
#335=VECTOR('',#587,1.);
#336=VECTOR('',#590,1.);
#337=VECTOR('',#591,1.);
#338=VECTOR('',#592,1.);
#339=VECTOR('',#595,1.);
#340=VECTOR('',#598,1.);
#341=VECTOR('',#601,1.);
#342=VECTOR('',#602,1.);
#343=VECTOR('',#603,1.);
#344=VECTOR('',#606,1.);
#345=VECTOR('',#607,1.);
#346=VECTOR('',#608,1.);
#347=VECTOR('',#611,1.);
#348=VECTOR('',#614,1.);
#349=VECTOR('',#617,1.);
#350=VECTOR('',#618,1.);
#351=VECTOR('',#619,1.);
#352=VECTOR('',#622,1.);
#353=VECTOR('',#623,1.);
#354=VECTOR('',#624,1.);
#355=VECTOR('',#627,1.);
#356=VECTOR('',#630,1.);
#357=EDGE_LOOP('',(#18,#19,#20,#21,#22,#23));
#358=EDGE_LOOP('',(#24,#25,#26,#27));
#359=EDGE_LOOP('',(#28,#29,#30,#31,#32,#33));
#360=EDGE_LOOP('',(#34,#35,#36,#37,#38,#39));
#361=EDGE_LOOP('',(#40,#41,#42,#43));
#362=EDGE_LOOP('',(#44,#45,#46,#47));
#363=EDGE_LOOP('',(#48,#49,#50,#51));
#364=EDGE_LOOP('',(#52,#53,#54,#55));
#365=EDGE_LOOP('',(#56));
#366=EDGE_LOOP('',(#57));
#367=EDGE_LOOP('',(#58,#59,#60,#61));
#368=EDGE_LOOP('',(#62,#63,#64,#65));
#369=EDGE_LOOP('',(#66,#67,#68,#69));
#370=EDGE_LOOP('',(#70,#71,#72,#73));
#371=EDGE_LOOP('',(#74,#75,#76,#77));
#372=EDGE_LOOP('',(#78,#79,#80,#81));
#373=EDGE_LOOP('',(#82,#83,#84,#85));
#374=EDGE_LOOP('',(#86,#87,#88,#89));
#375=EDGE_LOOP('',(#90,#91,#92,#93));
#376=EDGE_LOOP('',(#94,#95,#96,#97));
#377=EDGE_LOOP('',(#98,#99,#100,#101));
#378=EDGE_LOOP('',(#102,#103,#104,#105));
#379=EDGE_LOOP('',(#106,#107,#108,#109));
#380=EDGE_LOOP('',(#110,#111,#112,#113));
#381=EDGE_LOOP('',(#114,#115,#116,#117));
#382=EDGE_LOOP('',(#118,#119,#120,#121));
#383=EDGE_LOOP('',(#122));
#384=EDGE_LOOP('',(#123));
#385=EDGE_LOOP('',(#124));
#386=EDGE_LOOP('',(#125));
#387=EDGE_LOOP('',(#126));
#388=EDGE_LOOP('',(#127));
#389=EDGE_LOOP('',(#128,#129,#130,#131));
#390=EDGE_LOOP('',(#132,#133,#134,#135));
#391=EDGE_LOOP('',(#136,#137,#138,#139));
#392=FACE_BOUND('',#357,.T.);
#393=FACE_BOUND('',#358,.T.);
#394=FACE_BOUND('',#359,.T.);
#395=FACE_BOUND('',#360,.T.);
#396=FACE_BOUND('',#361,.T.);
#397=FACE_BOUND('',#362,.T.);
#398=FACE_BOUND('',#363,.T.);
#399=FACE_BOUND('',#364,.T.);
#400=FACE_BOUND('',#365,.T.);
#401=FACE_BOUND('',#366,.T.);
#402=FACE_BOUND('',#367,.T.);
#403=FACE_BOUND('',#368,.T.);
#404=FACE_BOUND('',#369,.T.);
#405=FACE_BOUND('',#370,.T.);
#406=FACE_BOUND('',#371,.T.);
#407=FACE_BOUND('',#372,.T.);
#408=FACE_BOUND('',#373,.T.);
#409=FACE_BOUND('',#374,.T.);
#410=FACE_BOUND('',#375,.T.);
#411=FACE_BOUND('',#376,.T.);
#412=FACE_BOUND('',#377,.T.);
#413=FACE_BOUND('',#378,.T.);
#414=FACE_BOUND('',#379,.T.);
#415=FACE_BOUND('',#380,.T.);
#416=FACE_BOUND('',#381,.T.);
#417=FACE_BOUND('',#382,.T.);
#418=FACE_BOUND('',#383,.T.);
#419=FACE_BOUND('',#384,.T.);
#420=FACE_BOUND('',#385,.T.);
#421=FACE_BOUND('',#386,.T.);
#422=FACE_BOUND('',#387,.T.);
#423=FACE_BOUND('',#388,.T.);
#424=FACE_BOUND('',#389,.T.);
#425=FACE_BOUND('',#390,.T.);
#426=FACE_BOUND('',#391,.T.);
#427=PLANE('',#494);
#428=PLANE('',#495);
#429=PLANE('',#496);
#430=PLANE('',#497);
#431=PLANE('',#498);
#432=PLANE('',#501);
#433=PLANE('',#502);
#434=PLANE('',#503);
#435=PLANE('',#504);
#436=PLANE('',#505);
#437=PLANE('',#506);
#438=PLANE('',#507);
#439=PLANE('',#508);
#440=PLANE('',#509);
#441=PLANE('',#510);
#442=PLANE('',#511);
#443=PLANE('',#512);
#444=PLANE('',#513);
#445=PLANE('',#514);
#446=PLANE('',#515);
#447=PLANE('',#516);
#448=PLANE('',#519);
#449=PLANE('',#522);
#450=PLANE('',#523);
#451=PLANE('',#524);
#452=PLANE('',#525);
#453=ADVANCED_FACE('',(#392),#427,.F.);
#454=ADVANCED_FACE('',(#393),#428,.F.);
#455=ADVANCED_FACE('',(#394),#429,.F.);
#456=ADVANCED_FACE('',(#395),#430,.F.);
#457=ADVANCED_FACE('',(#396,#397,#398,#399,#400,#401),#431,.T.);
#458=ADVANCED_FACE('',(#402),#432,.F.);
#459=ADVANCED_FACE('',(#403),#433,.F.);
#460=ADVANCED_FACE('',(#404),#434,.F.);
#461=ADVANCED_FACE('',(#405),#435,.T.);
#462=ADVANCED_FACE('',(#406),#436,.F.);
#463=ADVANCED_FACE('',(#407),#437,.F.);
#464=ADVANCED_FACE('',(#408),#438,.F.);
#465=ADVANCED_FACE('',(#409),#439,.T.);
#466=ADVANCED_FACE('',(#410),#440,.F.);
#467=ADVANCED_FACE('',(#411),#441,.F.);
#468=ADVANCED_FACE('',(#412),#442,.F.);
#469=ADVANCED_FACE('',(#413),#443,.T.);
#470=ADVANCED_FACE('',(#414),#444,.F.);
#471=ADVANCED_FACE('',(#415),#445,.F.);
#472=ADVANCED_FACE('',(#416),#446,.F.);
#473=ADVANCED_FACE('',(#417),#447,.T.);
#474=ADVANCED_FACE('',(#418,#419),#12,.F.);
#475=ADVANCED_FACE('',(#420),#448,.T.);
#476=ADVANCED_FACE('',(#421,#422),#13,.F.);
#477=ADVANCED_FACE('',(#423),#449,.T.);
#478=ADVANCED_FACE('',(#424),#450,.T.);
#479=ADVANCED_FACE('',(#425),#451,.T.);
#480=ADVANCED_FACE('',(#426),#452,.T.);
#481=CLOSED_SHELL('',(#453,#454,#455,#456,#457,#458,#459,#460,#461,#462,
#463,#464,#465,#466,#467,#468,#469,#470,#471,#472,#473,#474,#475,#476,#477,
#478,#479,#480));
#482=STYLED_ITEM('',(#483),#490);
#483=PRESENTATION_STYLE_ASSIGNMENT((#484));
#484=SURFACE_STYLE_USAGE(.BOTH.,#485);
#485=SURFACE_SIDE_STYLE('',(#486));
#486=SURFACE_STYLE_FILL_AREA(#487);
#487=FILL_AREA_STYLE('',(#488));
#488=FILL_AREA_STYLE_COLOUR('',#489);
#489=COLOUR_RGB('',0.792156862745098,0.819607843137255,0.933333333333333);
#490=MANIFOLD_SOLID_BREP('Part 1',#481);
#491=SHAPE_DEFINITION_REPRESENTATION(#787,#492);
#492=SHAPE_REPRESENTATION('Part 1',(#493),#782);
#493=AXIS2_PLACEMENT_3D('',#649,#526,#527);
#494=AXIS2_PLACEMENT_3D('',#650,#528,#529);
#495=AXIS2_PLACEMENT_3D('',#663,#536,#537);
#496=AXIS2_PLACEMENT_3D('',#669,#541,#542);
#497=AXIS2_PLACEMENT_3D('',#677,#547,#548);
#498=AXIS2_PLACEMENT_3D('',#684,#553,#554);
#499=AXIS2_PLACEMENT_3D('',#710,#568,#569);
#500=AXIS2_PLACEMENT_3D('',#712,#570,#571);
#501=AXIS2_PLACEMENT_3D('',#714,#572,#573);
#502=AXIS2_PLACEMENT_3D('',#718,#576,#577);
#503=AXIS2_PLACEMENT_3D('',#720,#579,#580);
#504=AXIS2_PLACEMENT_3D('',#721,#581,#582);
#505=AXIS2_PLACEMENT_3D('',#722,#583,#584);
#506=AXIS2_PLACEMENT_3D('',#728,#588,#589);
#507=AXIS2_PLACEMENT_3D('',#734,#593,#594);
#508=AXIS2_PLACEMENT_3D('',#736,#596,#597);
#509=AXIS2_PLACEMENT_3D('',#738,#599,#600);
#510=AXIS2_PLACEMENT_3D('',#744,#604,#605);
#511=AXIS2_PLACEMENT_3D('',#750,#609,#610);
#512=AXIS2_PLACEMENT_3D('',#752,#612,#613);
#513=AXIS2_PLACEMENT_3D('',#754,#615,#616);
#514=AXIS2_PLACEMENT_3D('',#760,#620,#621);
#515=AXIS2_PLACEMENT_3D('',#766,#625,#626);
#516=AXIS2_PLACEMENT_3D('',#768,#628,#629);
#517=AXIS2_PLACEMENT_3D('',#770,#631,#632);
#518=AXIS2_PLACEMENT_3D('',#771,#633,#634);
#519=AXIS2_PLACEMENT_3D('',#773,#635,#636);
#520=AXIS2_PLACEMENT_3D('',#774,#637,#638);
#521=AXIS2_PLACEMENT_3D('',#775,#639,#640);
#522=AXIS2_PLACEMENT_3D('',#777,#641,#642);
#523=AXIS2_PLACEMENT_3D('',#778,#643,#644);
#524=AXIS2_PLACEMENT_3D('',#779,#645,#646);
#525=AXIS2_PLACEMENT_3D('',#780,#647,#648);
#526=DIRECTION('',(0.,0.,1.));
#527=DIRECTION('',(1.,0.,0.));
#528=DIRECTION('',(0.,1.,0.));
#529=DIRECTION('',(0.,0.,1.));
#530=DIRECTION('',(1.,0.,0.));
#531=DIRECTION('',(0.,0.,1.));
#532=DIRECTION('',(-1.,0.,0.));
#533=DIRECTION('',(0.,0.,-1.));
#534=DIRECTION('',(1.,0.,1.26085292015274E-16));
#535=DIRECTION('',(0.,0.,-1.));
#536=DIRECTION('',(1.,0.,0.));
#537=DIRECTION('',(0.,0.,-1.));
#538=DIRECTION('',(0.,-1.,0.));
#539=DIRECTION('',(0.,0.,1.));
#540=DIRECTION('',(0.,0.78086880944303,-0.624695047554424));
#541=DIRECTION('',(0.,0.,-1.));
#542=DIRECTION('',(-1.,0.,0.));
#543=DIRECTION('',(0.,1.,0.));
#544=DIRECTION('',(-1.,0.,-1.22464679914735E-16));
#545=DIRECTION('',(0.,-1.,0.));
#546=DIRECTION('',(1.,0.,0.));
#547=DIRECTION('',(-1.,0.,0.));
#548=DIRECTION('',(0.,0.,1.));
#549=DIRECTION('',(0.,-0.78086880944303,0.624695047554424));
#550=DIRECTION('',(0.,0.,-1.));
#551=DIRECTION('',(0.,0.,1.));
#552=DIRECTION('',(0.,1.,0.));
#553=DIRECTION('',(0.,1.,0.));
#554=DIRECTION('',(0.,0.,1.));
#555=DIRECTION('',(0.,0.,1.));
#556=DIRECTION('',(-1.,0.,0.));
#557=DIRECTION('',(0.,0.,-1.));
#558=DIRECTION('',(1.,0.,0.));
#559=DIRECTION('',(0.,0.,1.));
#560=DIRECTION('',(-1.,0.,0.));
#561=DIRECTION('',(0.,0.,-1.));
#562=DIRECTION('',(1.,0.,0.));
#563=DIRECTION('',(0.,0.,1.));
#564=DIRECTION('',(-1.,0.,1.36592399683213E-16));
#565=DIRECTION('',(0.,0.,-1.));
#566=DIRECTION('',(1.,0.,-1.32323887193113E-16));
#567=DIRECTION('',(1.,0.,0.));
#568=DIRECTION('',(0.,1.,0.));
#569=DIRECTION('',(0.,0.,1.));
#570=DIRECTION('',(0.,1.,0.));
#571=DIRECTION('',(0.,0.,1.));
#572=DIRECTION('',(1.,0.,0.));
#573=DIRECTION('',(0.,0.,-1.));
#574=DIRECTION('',(0.,1.,0.));
#575=DIRECTION('',(0.,0.,-1.));
#576=DIRECTION('',(-1.26085292015274E-16,0.,1.));
#577=DIRECTION('',(1.,0.,1.26085292015274E-16));
#578=DIRECTION('',(1.,0.,1.26085292015274E-16));
#579=DIRECTION('',(0.,1.,0.));
#580=DIRECTION('',(0.,0.,1.));
#581=DIRECTION('',(0.,-0.624695047554424,-0.78086880944303));
#582=DIRECTION('',(0.,0.78086880944303,-0.624695047554424));
#583=DIRECTION('',(-1.,0.,0.));
#584=DIRECTION('',(0.,0.,1.));
#585=DIRECTION('',(0.,0.,-1.));
#586=DIRECTION('',(0.,0.780868809443031,-0.624695047554424));
#587=DIRECTION('',(0.,1.,0.));
#588=DIRECTION('',(1.,0.,0.));
#589=DIRECTION('',(0.,0.,-1.));
#590=DIRECTION('',(0.,-0.780868809443031,0.624695047554424));
#591=DIRECTION('',(0.,0.,1.));
#592=DIRECTION('',(0.,1.,0.));
#593=DIRECTION('',(1.32323887193113E-16,0.,1.));
#594=DIRECTION('',(1.,0.,-1.32323887193113E-16));
#595=DIRECTION('',(-1.,0.,1.32323887193113E-16));
#596=DIRECTION('',(0.,1.,0.));
#597=DIRECTION('',(0.,0.,1.));
#598=DIRECTION('',(1.,0.,0.));
#599=DIRECTION('',(-1.,0.,0.));
#600=DIRECTION('',(0.,0.,1.));
#601=DIRECTION('',(0.,0.,-1.));
#602=DIRECTION('',(0.,0.780868809443031,-0.624695047554424));
#603=DIRECTION('',(0.,1.,0.));
#604=DIRECTION('',(1.,0.,0.));
#605=DIRECTION('',(0.,0.,-1.));
#606=DIRECTION('',(0.,-0.780868809443031,0.624695047554424));
#607=DIRECTION('',(0.,0.,1.));
#608=DIRECTION('',(0.,1.,0.));
#609=DIRECTION('',(0.,0.,1.));
#610=DIRECTION('',(1.,0.,0.));
#611=DIRECTION('',(-1.,0.,0.));
#612=DIRECTION('',(0.,1.,0.));
#613=DIRECTION('',(0.,0.,1.));
#614=DIRECTION('',(1.,0.,0.));
#615=DIRECTION('',(-1.,0.,0.));
#616=DIRECTION('',(0.,0.,1.));
#617=DIRECTION('',(0.,0.,-1.));
#618=DIRECTION('',(0.,0.780868809443031,-0.624695047554424));
#619=DIRECTION('',(0.,1.,0.));
#620=DIRECTION('',(1.,0.,0.));
#621=DIRECTION('',(0.,0.,-1.));
#622=DIRECTION('',(0.,-0.780868809443031,0.624695047554424));
#623=DIRECTION('',(0.,0.,1.));
#624=DIRECTION('',(0.,1.,0.));
#625=DIRECTION('',(0.,0.,1.));
#626=DIRECTION('',(1.,0.,0.));
#627=DIRECTION('',(-1.,0.,0.));
#628=DIRECTION('',(0.,1.,0.));
#629=DIRECTION('',(0.,0.,1.));
#630=DIRECTION('',(1.,0.,0.));
#631=DIRECTION('',(0.,1.,0.));
#632=DIRECTION('',(0.,0.,1.));
#633=DIRECTION('',(0.,1.,0.));
#634=DIRECTION('',(0.,0.,1.));
#635=DIRECTION('',(0.,1.,0.));
#636=DIRECTION('',(0.,0.,1.));
#637=DIRECTION('',(0.,1.,0.));
#638=DIRECTION('',(0.,0.,1.));
#639=DIRECTION('',(0.,1.,0.));
#640=DIRECTION('',(0.,0.,1.));
#641=DIRECTION('',(0.,1.,0.));
#642=DIRECTION('',(0.,0.,1.));
#643=DIRECTION('',(0.,0.624695047554424,0.78086880944303));
#644=DIRECTION('',(0.,-0.78086880944303,0.624695047554424));
#645=DIRECTION('',(0.,0.624695047554424,0.78086880944303));
#646=DIRECTION('',(0.,-0.78086880944303,0.624695047554424));
#647=DIRECTION('',(0.,0.624695047554424,0.78086880944303));
#648=DIRECTION('',(0.,-0.78086880944303,0.624695047554424));
#649=CARTESIAN_POINT('',(0.,0.,0.));
#650=CARTESIAN_POINT('',(0.,0.,0.));
#651=CARTESIAN_POINT('',(0.,0.,0.));
#652=CARTESIAN_POINT('',(0.,0.,0.));
#653=CARTESIAN_POINT('',(0.1397,0.,0.));
#654=CARTESIAN_POINT('',(0.,0.,-0.127));
#655=CARTESIAN_POINT('',(0.,0.,-0.127));
#656=CARTESIAN_POINT('',(0.635,0.,-0.127));
#657=CARTESIAN_POINT('',(0.635,-2.08166817117217E-17,-0.127));
#658=CARTESIAN_POINT('',(0.635,0.,0.));
#659=CARTESIAN_POINT('',(0.635,0.,-0.0508));
#660=CARTESIAN_POINT('',(0.635,0.,-0.0508));
#661=CARTESIAN_POINT('',(0.1397,0.,-0.0508));
#662=CARTESIAN_POINT('',(0.1397,0.,-6.06567559617684E-17));
#663=CARTESIAN_POINT('',(0.,0.127,-0.127));
#664=CARTESIAN_POINT('',(0.,0.127,0.));
#665=CARTESIAN_POINT('',(0.,0.127,0.));
#666=CARTESIAN_POINT('',(0.,0.127,-0.127));
#667=CARTESIAN_POINT('',(0.,0.127,-0.2286));
#668=CARTESIAN_POINT('',(0.,-2.08166817117217E-17,-0.127));
#669=CARTESIAN_POINT('',(0.,0.127,0.));
#670=CARTESIAN_POINT('',(0.1397,-0.0762,-6.06567559617684E-17));
#671=CARTESIAN_POINT('',(0.1397,-0.0762,-6.06567559617684E-17));
#672=CARTESIAN_POINT('',(0.635,-0.0762,0.));
#673=CARTESIAN_POINT('',(0.635,-0.0762,0.));
#674=CARTESIAN_POINT('',(0.635,0.127,0.));
#675=CARTESIAN_POINT('',(0.635,0.127,0.));
#676=CARTESIAN_POINT('',(0.,0.127,0.));
#677=CARTESIAN_POINT('',(0.635,0.127,0.));
#678=CARTESIAN_POINT('',(0.635,-2.08166817117217E-17,-0.127));
#679=CARTESIAN_POINT('',(0.635,0.127,-0.2286));
#680=CARTESIAN_POINT('',(0.635,0.127,0.));
#681=CARTESIAN_POINT('',(0.635,-0.0762,0.));
#682=CARTESIAN_POINT('',(0.635,-0.0762,-0.0508));
#683=CARTESIAN_POINT('',(0.635,-0.0762,-0.0508));
#684=CARTESIAN_POINT('',(0.,0.127,0.));
#685=CARTESIAN_POINT('',(0.00508,0.127,-0.00508));
#686=CARTESIAN_POINT('',(0.00508,0.127,-0.22352));
#687=CARTESIAN_POINT('',(0.00508,0.127,-0.00508));
#688=CARTESIAN_POINT('',(0.00508,0.127,-0.22352));
#689=CARTESIAN_POINT('',(0.24638,0.127,-0.22352));
#690=CARTESIAN_POINT('',(0.24638,0.127,-0.00508));
#691=CARTESIAN_POINT('',(0.24638,0.127,-0.00508));
#692=CARTESIAN_POINT('',(0.00508,0.127,-0.00508));
#693=CARTESIAN_POINT('',(0.25146,0.127,-0.22352));
#694=CARTESIAN_POINT('',(0.25146,0.127,-0.22352));
#695=CARTESIAN_POINT('',(0.25146,0.127,-0.10668));
#696=CARTESIAN_POINT('',(0.25146,0.127,-0.22352));
#697=CARTESIAN_POINT('',(0.42164,0.127,-0.22352));
#698=CARTESIAN_POINT('',(0.42164,0.127,-0.22352));
#699=CARTESIAN_POINT('',(0.42164,0.127,-0.10668));
#700=CARTESIAN_POINT('',(0.25146,0.127,-0.10668));
#701=CARTESIAN_POINT('',(0.42672,0.127,-0.00508));
#702=CARTESIAN_POINT('',(0.42672,0.127,-0.22352));
#703=CARTESIAN_POINT('',(0.42672,0.127,-0.00508));
#704=CARTESIAN_POINT('',(0.62992,0.127,-0.22352));
#705=CARTESIAN_POINT('',(0.62992,0.127,-0.22352));
#706=CARTESIAN_POINT('',(0.62992,0.127,-0.22352));
#707=CARTESIAN_POINT('',(0.62992,0.127,-0.00508));
#708=CARTESIAN_POINT('',(0.62992,0.127,-0.00508));
#709=CARTESIAN_POINT('',(0.,0.127,-0.2286));
#710=CARTESIAN_POINT('',(0.28829,0.127,-0.05588));
#711=CARTESIAN_POINT('',(0.28829,0.127,-0.01778));
#712=CARTESIAN_POINT('',(0.37592,0.127,-0.05588));
#713=CARTESIAN_POINT('',(0.37592,0.127,-0.01016));
#714=CARTESIAN_POINT('',(0.1397,-0.0762,-6.06567559617684E-17));
#715=CARTESIAN_POINT('',(0.1397,-0.0762,-0.0508));
#716=CARTESIAN_POINT('',(0.1397,-0.0762,-0.0508));
#717=CARTESIAN_POINT('',(0.1397,-0.0762,-6.06567559617684E-17));
#718=CARTESIAN_POINT('',(0.635,-0.0762,-0.0508));
#719=CARTESIAN_POINT('',(0.635,-0.0762,-0.0508));
#720=CARTESIAN_POINT('',(0.,-0.0762,0.));
#721=CARTESIAN_POINT('',(0.,-0.0619512195121952,-0.077439024390244));
#722=CARTESIAN_POINT('',(0.42672,-0.325486902347852,-0.00508));
#723=CARTESIAN_POINT('',(0.42672,0.00508,-0.00508));
#724=CARTESIAN_POINT('',(0.42672,0.00508,-0.00508));
#725=CARTESIAN_POINT('',(0.42672,0.00508,-0.125984));
#726=CARTESIAN_POINT('',(0.42672,-0.255462745334056,0.0824501962672447));
#727=CARTESIAN_POINT('',(0.42672,-0.325486902347852,-0.00508));
#728=CARTESIAN_POINT('',(0.62992,-0.325486902347852,-0.22352));
#729=CARTESIAN_POINT('',(0.62992,-0.14890664777308,-0.00279468178153575));
#730=CARTESIAN_POINT('',(0.62992,0.00508,-0.125984));
#731=CARTESIAN_POINT('',(0.62992,0.00508,-0.22352));
#732=CARTESIAN_POINT('',(0.62992,0.00507999999999986,-0.00508));
#733=CARTESIAN_POINT('',(0.62992,-0.325486902347852,-0.00508));
#734=CARTESIAN_POINT('',(0.62992,-0.325486902347852,-0.00508));
#735=CARTESIAN_POINT('',(0.62992,0.00508,-0.00508));
#736=CARTESIAN_POINT('',(0.,0.00508,0.));
#737=CARTESIAN_POINT('',(0.,0.00508,-0.125984));
#738=CARTESIAN_POINT('',(0.25146,-0.325486902347852,-0.22352));
#739=CARTESIAN_POINT('',(0.25146,0.00508,-0.22352));
#740=CARTESIAN_POINT('',(0.25146,0.00508,-0.10668));
#741=CARTESIAN_POINT('',(0.25146,0.00508,-0.125984));
#742=CARTESIAN_POINT('',(0.25146,-0.14890664777308,-0.0027946817815358));
#743=CARTESIAN_POINT('',(0.25146,-0.325486902347852,-0.10668));
#744=CARTESIAN_POINT('',(0.42164,-0.325486902347852,-0.22352));
#745=CARTESIAN_POINT('',(0.42164,-0.14890664777308,-0.0027946817815358));
#746=CARTESIAN_POINT('',(0.42164,0.00508,-0.125984));
#747=CARTESIAN_POINT('',(0.42164,0.00508,-0.22352));
#748=CARTESIAN_POINT('',(0.42164,0.00507999999999986,-0.10668));
#749=CARTESIAN_POINT('',(0.42164,-0.325486902347852,-0.10668));
#750=CARTESIAN_POINT('',(0.25146,-0.325486902347852,-0.10668));
#751=CARTESIAN_POINT('',(0.25146,0.00508,-0.10668));
#752=CARTESIAN_POINT('',(0.,0.00508,0.));
#753=CARTESIAN_POINT('',(0.,0.00508,-0.125984));
#754=CARTESIAN_POINT('',(0.00508,-0.325486902347852,-0.00508));
#755=CARTESIAN_POINT('',(0.00508,0.00508,-0.00508));
#756=CARTESIAN_POINT('',(0.00508,0.00508,-0.00508));
#757=CARTESIAN_POINT('',(0.00508,0.00508,-0.125984));
#758=CARTESIAN_POINT('',(0.00508,-0.255462745334056,0.0824501962672447));
#759=CARTESIAN_POINT('',(0.00508,-0.325486902347852,-0.00508));
#760=CARTESIAN_POINT('',(0.24638,-0.325486902347852,-0.00508));
#761=CARTESIAN_POINT('',(0.24638,-0.255462745334056,0.0824501962672447));
#762=CARTESIAN_POINT('',(0.24638,0.00508,-0.125984));
#763=CARTESIAN_POINT('',(0.24638,0.00508,-0.00508));
#764=CARTESIAN_POINT('',(0.24638,0.00507999999999986,-0.00508));
#765=CARTESIAN_POINT('',(0.24638,-0.325486902347852,-0.00508));
#766=CARTESIAN_POINT('',(0.00508,-0.325486902347852,-0.00508));
#767=CARTESIAN_POINT('',(0.00508,0.00508,-0.00508));
#768=CARTESIAN_POINT('',(0.,0.00508,0.));
#769=CARTESIAN_POINT('',(0.,0.00508,-0.125984));
#770=CARTESIAN_POINT('',(0.37592,-0.325486902347852,-0.05588));
#771=CARTESIAN_POINT('',(0.37592,0.00508,-0.05588));
#772=CARTESIAN_POINT('',(0.37592,0.00508,-0.01016));
#773=CARTESIAN_POINT('',(0.,0.00508,0.));
#774=CARTESIAN_POINT('',(0.28829,-0.325486902347852,-0.05588));
#775=CARTESIAN_POINT('',(0.28829,0.00508,-0.05588));
#776=CARTESIAN_POINT('',(0.28829,0.00508,-0.01778));
#777=CARTESIAN_POINT('',(0.,0.00508,0.));
#778=CARTESIAN_POINT('',(0.,-0.0619512195121952,-0.0723590243902439));
#779=CARTESIAN_POINT('',(0.,-0.0619512195121952,-0.0723590243902439));
#780=CARTESIAN_POINT('',(0.,-0.0619512195121952,-0.0723590243902439));
#781=MECHANICAL_DESIGN_GEOMETRIC_PRESENTATION_REPRESENTATION('',(#482),
#782);
#782=(
GEOMETRIC_REPRESENTATION_CONTEXT(3)
GLOBAL_UNCERTAINTY_ASSIGNED_CONTEXT((#783))
GLOBAL_UNIT_ASSIGNED_CONTEXT((#786,#785,#784))
REPRESENTATION_CONTEXT('Part 1','TOP_LEVEL_ASSEMBLY_PART')
);
#783=UNCERTAINTY_MEASURE_WITH_UNIT(LENGTH_MEASURE(1.E-8),#786,
'DISTANCE_ACCURACY_VALUE','Maximum Tolerance applied to model');
#784=(
NAMED_UNIT(*)
SI_UNIT($,.STERADIAN.)
SOLID_ANGLE_UNIT()
);
#785=(
NAMED_UNIT(*)
PLANE_ANGLE_UNIT()
SI_UNIT($,.RADIAN.)
);
#786=(
LENGTH_UNIT()
NAMED_UNIT(*)
SI_UNIT($,.METRE.)
);
#787=PRODUCT_DEFINITION_SHAPE('','',#788);
#788=PRODUCT_DEFINITION('','',#790,#789);
#789=PRODUCT_DEFINITION_CONTEXT('',#796,'design');
#790=PRODUCT_DEFINITION_FORMATION_WITH_SPECIFIED_SOURCE('','',#792,
 .NOT_KNOWN.);
#791=PRODUCT_RELATED_PRODUCT_CATEGORY('','',(#792));
#792=PRODUCT('Part 1','Part 1','Part 1',(#794));
#793=PRODUCT_CATEGORY('','');
#794=PRODUCT_CONTEXT('',#796,'mechanical');
#795=APPLICATION_PROTOCOL_DEFINITION('international standard',
'ap242_managed_model_based_3d_engineering',2020,#796);
#796=APPLICATION_CONTEXT('managed model based 3d engineering');
ENDSEC;
END-ISO-10303-21;
