ISO-10303-21;
HEADER;
/* Generated by software containing ST-Developer
 * from STEP Tools, Inc. (www.steptools.com) 
 */
/* OPTION: using custom renumber hook */

FILE_DESCRIPTION(
/* description */ ('STEP AP242 Edition 2',
'CAx-IF Rec.Pracs.---Representation and Presentation of Product Manufa
cturing Information (PMI)---4.0---2014-10-13',
'CAx-IF Rec.Pracs.---3D Tessellated Geometry---0.4---2014-09-14','2;1',
'CAx-IF Rec.Pracs.---User Defined Attributes---1.5---2016-08-15'),
/* implementation_level */ '2;1');

FILE_NAME(
/* name */ 'RazorStandMax',
/* time_stamp */ '2026-09-18T13:25:55Z',
/* author */ (''),
/* organization */ (''),
/* preprocessor_version */ 'ST-DEVELOPER v20',
/* originating_system */ 'ONSHAPE BY PTC INC, 1.220',
/* authorisation */ '  ');

FILE_SCHEMA (('AP242_MANAGED_MODEL_BASED_3D_ENGINEERING_MIM_LF { 1 0 10303 442 3 1 4 }'));
ENDSEC;

DATA;
#10=SHAPE_REPRESENTATION_RELATIONSHIP('','',#291,#11);
#11=ADVANCED_BREP_SHAPE_REPRESENTATION('',(#289),#692);
#12=CYLINDRICAL_SURFACE('',#313,0.00635);
#13=CYLINDRICAL_SURFACE('',#314,0.00635);
#14=CYLINDRICAL_SURFACE('',#315,0.00635000101841725);
#15=CYLINDRICAL_SURFACE('',#316,0.00635000101841725);
#16=TOROIDAL_SURFACE('',#309,0.0101600000000316,0.00254);
#17=TOROIDAL_SURFACE('',#311,0.00999282291589404,0.00254);
#18=(
BOUNDED_SURFACE()
B_SPLINE_SURFACE(3,2,((#627,#628,#629),(#630,#631,#632),(#633,#634,#635),
(#636,#637,#638),(#639,#640,#641),(#642,#643,#644),(#645,#646,#647),(#648,
#649,#650),(#651,#652,#653)),.UNSPECIFIED.,.F.,.F.,.F.)
B_SPLINE_SURFACE_WITH_KNOTS((4,1,1,1,1,1,4),(3,3),(-1.73472347597681E-17,
0.0139016339057158,0.0208524508585737,0.0278032678114316,0.0347540847642895,
0.0417049017171474,0.0556065356228632),(0.,1.),.UNSPECIFIED.)
GEOMETRIC_REPRESENTATION_ITEM()
RATIONAL_B_SPLINE_SURFACE(((1.,0.707106781186548,1.),(1.,0.707106781186548,
1.),(1.,0.707106781186548,1.),(1.,0.707106781186548,1.),(1.,0.707106781186548,
1.),(1.,0.707106781186547,1.),(1.,0.707106781186547,1.),(1.,0.707106781186548,
1.),(1.,0.707106781186548,1.)))
REPRESENTATION_ITEM('')
SURFACE()
);
#19=(
BOUNDED_SURFACE()
B_SPLINE_SURFACE(3,2,((#660,#661,#662),(#663,#664,#665),(#666,#667,#668),
(#669,#670,#671),(#672,#673,#674),(#675,#676,#677),(#678,#679,#680),(#681,
#682,#683),(#684,#685,#686)),.UNSPECIFIED.,.F.,.F.,.F.)
B_SPLINE_SURFACE_WITH_KNOTS((4,1,1,1,1,1,4),(3,3),(1.38777878078145E-17,
0.0139017306117631,0.0208525959176446,0.0278034612235261,0.0347543265294077,
0.0417051918352892,0.0556069224470523),(0.,1.),.UNSPECIFIED.)
GEOMETRIC_REPRESENTATION_ITEM()
RATIONAL_B_SPLINE_SURFACE(((1.,0.707106781186548,1.),(1.,0.707106781186548,
1.),(1.,0.707106781186548,1.),(1.,0.707106781186547,1.),(1.,0.707106781186547,
1.),(1.,0.707106781186547,1.),(1.,0.707106781186548,1.),(1.,0.707106781186547,
1.),(1.,0.707106781186548,1.)))
REPRESENTATION_ITEM('')
SURFACE()
);
#20=B_SPLINE_SURFACE_WITH_KNOTS('',3,1,((#460,#461),(#462,#463),(#464,#465),
(#466,#467),(#468,#469),(#470,#471),(#472,#473),(#474,#475),(#476,#477),
(#478,#479),(#480,#481),(#482,#483),(#484,#485),(#486,#487),(#488,#489),
(#490,#491),(#492,#493),(#494,#495),(#496,#497),(#498,#499),(#500,#501),
(#502,#503)),.RULED_SURF.,.F.,.F.,.F.,(4,2,2,2,2,2,2,2,2,2,4),(2,2),(0.111651525212888,
0.125,0.15625,0.1875,0.21875,0.25,0.28125,0.3125,0.34375,0.375,0.387294649265582),
(0.,0.135593220338983),.UNSPECIFIED.);
#21=B_SPLINE_SURFACE_WITH_KNOTS('',3,1,((#540,#541,#542),(#543,#544,#545),
(#546,#547,#548),(#549,#550,#551),(#552,#553,#554),(#555,#556,#557),(#558,
#559,#560),(#561,#562,#563),(#564,#565,#566),(#567,#568,#569),(#570,#571,
#572),(#573,#574,#575),(#576,#577,#578),(#579,#580,#581),(#582,#583,#584),
(#585,#586,#587),(#588,#589,#590),(#591,#592,#593)),.RULED_SURF.,.F.,.F.,
 .F.,(4,2,2,2,2,2,2,2,4),(2,1,2),(0.161327061748695,0.1875,0.21875,0.25,
0.28125,0.3125,0.34375,0.375,0.38797852226605),(0.829212404977909,1.,1.00116665600497),
 .UNSPECIFIED.);
#22=LINE('',#405,#34);
#23=LINE('',#410,#35);
#24=LINE('',#413,#36);
#25=LINE('',#418,#37);
#26=LINE('',#422,#38);
#27=LINE('',#429,#39);
#28=LINE('',#431,#40);
#29=LINE('',#438,#41);
#30=LINE('',#440,#42);
#31=LINE('',#442,#43);
#32=LINE('',#450,#44);
#33=LINE('',#459,#45);
#34=VECTOR('',#325,1.);
#35=VECTOR('',#328,1.);
#36=VECTOR('',#331,1.);
#37=VECTOR('',#334,1.);
#38=VECTOR('',#339,1.);
#39=VECTOR('',#340,1.);
#40=VECTOR('',#343,1.);
#41=VECTOR('',#344,1.);
#42=VECTOR('',#347,1.);
#43=VECTOR('',#348,1.);
#44=VECTOR('',#351,1.);
#45=VECTOR('',#352,1.);
#46=B_SPLINE_CURVE_WITH_KNOTS('',3,(#384,#385,#386,#387,#388,#389,#390,
#391,#392),.UNSPECIFIED.,.F.,.F.,(4,1,1,1,1,1,4),(4.75293086047947E-15,
0.0139017306117666,0.0208525959176475,0.0278034612235285,0.0347543265294094,
0.0417051918352903,0.0556069224470522),.UNSPECIFIED.);
#47=B_SPLINE_CURVE_WITH_KNOTS('',3,(#396,#397,#398,#399,#400,#401,#402,
#403,#404),.UNSPECIFIED.,.F.,.F.,(4,1,1,1,1,1,4),(0.,0.0139016339057158,
0.0208524508585737,0.0278032678114316,0.0347540847642895,0.0417049017171474,
0.0556065356228632),.UNSPECIFIED.);
#48=B_SPLINE_CURVE_WITH_KNOTS('',3,(#424,#425,#426,#427),.UNSPECIFIED.,
 .F.,.F.,(4,4),(0.,0.00771355647797169),.UNSPECIFIED.);
#49=B_SPLINE_CURVE_WITH_KNOTS('',3,(#433,#434,#435,#436),.UNSPECIFIED.,
 .F.,.F.,(4,4),(2.11038219202008E-17,0.00771355336048953),.UNSPECIFIED.);
#50=B_SPLINE_CURVE_WITH_KNOTS('',3,(#444,#445,#446,#447,#448),
 .UNSPECIFIED.,.F.,.F.,(4,1,4),(5.89869754982739E-18,0.00397540139984668,
0.00795080279969335),.UNSPECIFIED.);
#51=B_SPLINE_CURVE_WITH_KNOTS('',3,(#452,#453,#454,#455,#456,#457),
 .UNSPECIFIED.,.F.,.F.,(4,1,1,4),(0.,0.00397377048265735,0.00596065572398602,
0.00794754096531469),.UNSPECIFIED.);
#52=B_SPLINE_CURVE_WITH_KNOTS('',3,(#504,#505,#506,#507,#508,#509),
 .UNSPECIFIED.,.F.,.F.,(4,1,1,4),(0.,0.00334777115424912,0.00502165673137368,
0.00669554230849823),.UNSPECIFIED.);
#53=B_SPLINE_CURVE_WITH_KNOTS('',3,(#511,#512,#513,#514),.UNSPECIFIED.,
 .F.,.F.,(4,4),(3.46944695195361E-18,9.15057041327981E-7),.UNSPECIFIED.);
#54=B_SPLINE_CURVE_WITH_KNOTS('',3,(#516,#517,#518,#519,#520,#521),
 .UNSPECIFIED.,.F.,.F.,(4,1,1,4),(4.96256413221126E-11,0.00154232441246404,
0.00308464877530243,0.00616929750097923),.UNSPECIFIED.);
#55=B_SPLINE_CURVE_WITH_KNOTS('',3,(#522,#523,#524,#525,#526,#527),
 .UNSPECIFIED.,.F.,.F.,(4,1,1,4),(5.50279333404246E-18,0.00307112895282886,
0.00460669342924329,0.00614225790565772),.UNSPECIFIED.);
#56=B_SPLINE_CURVE_WITH_KNOTS('',3,(#529,#530,#531,#532),.UNSPECIFIED.,
 .F.,.F.,(4,4),(3.46944695195361E-18,9.1476898175912E-7),.UNSPECIFIED.);
#57=B_SPLINE_CURVE_WITH_KNOTS('',3,(#534,#535,#536,#537,#538,#539),
 .UNSPECIFIED.,.F.,.F.,(4,1,1,4),(3.87895961444886E-18,0.00168219689893646,
0.00336439379787291,0.00672878759574582),.UNSPECIFIED.);
#58=B_SPLINE_CURVE_WITH_KNOTS('',3,(#594,#595,#596,#597,#598,#599,#600,
#601,#602),.UNSPECIFIED.,.F.,.F.,(4,1,1,1,1,1,4),(0.,0.00325487229705247,
0.00488230844557871,0.00650974459410495,0.00813718074263118,0.00976461689115742,
0.0130194891882099),.UNSPECIFIED.);
#59=B_SPLINE_CURVE_WITH_KNOTS('',3,(#603,#604,#605,#606,#607,#608,#609),
 .UNSPECIFIED.,.F.,.F.,(4,1,1,1,4),(2.27672130252826E-17,0.00310063941497831,
0.0062012788299566,0.00930191824493489,0.0124025576599132),
 .UNSPECIFIED.);
#60=B_SPLINE_CURVE_WITH_KNOTS('',3,(#611,#612,#613,#614,#615),
 .UNSPECIFIED.,.F.,.F.,(4,1,4),(0.105106229231146,0.501198961968645,0.897675285524685),
 .UNSPECIFIED.);
#61=B_SPLINE_CURVE_WITH_KNOTS('',3,(#620,#621,#622,#623,#624),
 .UNSPECIFIED.,.F.,.F.,(4,1,4),(0.105106229231464,0.501582552786913,0.897675285525082),
 .UNSPECIFIED.);
#62=ORIENTED_EDGE('',*,*,#142,.T.);
#63=ORIENTED_EDGE('',*,*,#143,.T.);
#64=ORIENTED_EDGE('',*,*,#144,.T.);
#65=ORIENTED_EDGE('',*,*,#145,.T.);
#66=ORIENTED_EDGE('',*,*,#146,.F.);
#67=ORIENTED_EDGE('',*,*,#147,.F.);
#68=ORIENTED_EDGE('',*,*,#148,.F.);
#69=ORIENTED_EDGE('',*,*,#149,.F.);
#70=ORIENTED_EDGE('',*,*,#150,.F.);
#71=ORIENTED_EDGE('',*,*,#151,.F.);
#72=ORIENTED_EDGE('',*,*,#152,.T.);
#73=ORIENTED_EDGE('',*,*,#153,.F.);
#74=ORIENTED_EDGE('',*,*,#146,.T.);
#75=ORIENTED_EDGE('',*,*,#154,.T.);
#76=ORIENTED_EDGE('',*,*,#155,.T.);
#77=ORIENTED_EDGE('',*,*,#156,.T.);
#78=ORIENTED_EDGE('',*,*,#148,.T.);
#79=ORIENTED_EDGE('',*,*,#157,.T.);
#80=ORIENTED_EDGE('',*,*,#158,.T.);
#81=ORIENTED_EDGE('',*,*,#159,.T.);
#82=ORIENTED_EDGE('',*,*,#160,.F.);
#83=ORIENTED_EDGE('',*,*,#152,.F.);
#84=ORIENTED_EDGE('',*,*,#161,.F.);
#85=ORIENTED_EDGE('',*,*,#162,.F.);
#86=ORIENTED_EDGE('',*,*,#150,.T.);
#87=ORIENTED_EDGE('',*,*,#163,.T.);
#88=ORIENTED_EDGE('',*,*,#164,.F.);
#89=ORIENTED_EDGE('',*,*,#165,.T.);
#90=ORIENTED_EDGE('',*,*,#164,.T.);
#91=ORIENTED_EDGE('',*,*,#166,.T.);
#92=ORIENTED_EDGE('',*,*,#167,.T.);
#93=ORIENTED_EDGE('',*,*,#168,.T.);
#94=ORIENTED_EDGE('',*,*,#162,.T.);
#95=ORIENTED_EDGE('',*,*,#169,.T.);
#96=ORIENTED_EDGE('',*,*,#170,.F.);
#97=ORIENTED_EDGE('',*,*,#171,.T.);
#98=ORIENTED_EDGE('',*,*,#158,.F.);
#99=ORIENTED_EDGE('',*,*,#172,.T.);
#100=ORIENTED_EDGE('',*,*,#155,.F.);
#101=ORIENTED_EDGE('',*,*,#173,.T.);
#102=ORIENTED_EDGE('',*,*,#174,.F.);
#103=ORIENTED_EDGE('',*,*,#175,.F.);
#104=ORIENTED_EDGE('',*,*,#176,.F.);
#105=ORIENTED_EDGE('',*,*,#177,.F.);
#106=ORIENTED_EDGE('',*,*,#178,.F.);
#107=ORIENTED_EDGE('',*,*,#174,.T.);
#108=ORIENTED_EDGE('',*,*,#179,.F.);
#109=ORIENTED_EDGE('',*,*,#145,.F.);
#110=ORIENTED_EDGE('',*,*,#179,.T.);
#111=ORIENTED_EDGE('',*,*,#177,.T.);
#112=ORIENTED_EDGE('',*,*,#180,.F.);
#113=ORIENTED_EDGE('',*,*,#142,.F.);
#114=ORIENTED_EDGE('',*,*,#178,.T.);
#115=ORIENTED_EDGE('',*,*,#144,.F.);
#116=ORIENTED_EDGE('',*,*,#181,.F.);
#117=ORIENTED_EDGE('',*,*,#175,.T.);
#118=ORIENTED_EDGE('',*,*,#180,.T.);
#119=ORIENTED_EDGE('',*,*,#176,.T.);
#120=ORIENTED_EDGE('',*,*,#181,.T.);
#121=ORIENTED_EDGE('',*,*,#143,.F.);
#122=ORIENTED_EDGE('',*,*,#149,.T.);
#123=ORIENTED_EDGE('',*,*,#159,.F.);
#124=ORIENTED_EDGE('',*,*,#173,.F.);
#125=ORIENTED_EDGE('',*,*,#154,.F.);
#126=ORIENTED_EDGE('',*,*,#147,.T.);
#127=ORIENTED_EDGE('',*,*,#156,.F.);
#128=ORIENTED_EDGE('',*,*,#172,.F.);
#129=ORIENTED_EDGE('',*,*,#157,.F.);
#130=ORIENTED_EDGE('',*,*,#151,.T.);
#131=ORIENTED_EDGE('',*,*,#165,.F.);
#132=ORIENTED_EDGE('',*,*,#171,.F.);
#133=ORIENTED_EDGE('',*,*,#170,.T.);
#134=ORIENTED_EDGE('',*,*,#169,.F.);
#135=ORIENTED_EDGE('',*,*,#161,.T.);
#136=ORIENTED_EDGE('',*,*,#153,.T.);
#137=ORIENTED_EDGE('',*,*,#160,.T.);
#138=ORIENTED_EDGE('',*,*,#168,.F.);
#139=ORIENTED_EDGE('',*,*,#167,.F.);
#140=ORIENTED_EDGE('',*,*,#166,.F.);
#141=ORIENTED_EDGE('',*,*,#163,.F.);
#142=EDGE_CURVE('',#182,#183,#210,.T.);
#143=EDGE_CURVE('',#183,#184,#46,.T.);
#144=EDGE_CURVE('',#184,#185,#211,.T.);
#145=EDGE_CURVE('',#185,#182,#47,.T.);
#146=EDGE_CURVE('',#186,#187,#22,.T.);
#147=EDGE_CURVE('',#188,#186,#212,.T.);
#148=EDGE_CURVE('',#189,#188,#23,.T.);
#149=EDGE_CURVE('',#187,#189,#213,.T.);
#150=EDGE_CURVE('',#190,#191,#24,.T.);
#151=EDGE_CURVE('',#192,#190,#214,.T.);
#152=EDGE_CURVE('',#192,#193,#25,.T.);
#153=EDGE_CURVE('',#191,#193,#215,.T.);
#154=EDGE_CURVE('',#187,#194,#26,.F.);
#155=EDGE_CURVE('',#194,#195,#48,.T.);
#156=EDGE_CURVE('',#195,#186,#27,.T.);
#157=EDGE_CURVE('',#188,#196,#28,.F.);
#158=EDGE_CURVE('',#196,#197,#49,.T.);
#159=EDGE_CURVE('',#197,#189,#29,.T.);
#160=EDGE_CURVE('',#193,#198,#30,.F.);
#161=EDGE_CURVE('',#199,#192,#31,.T.);
#162=EDGE_CURVE('',#198,#199,#50,.T.);
#163=EDGE_CURVE('',#191,#200,#32,.F.);
#164=EDGE_CURVE('',#201,#200,#51,.T.);
#165=EDGE_CURVE('',#201,#190,#33,.T.);
#166=EDGE_CURVE('',#200,#202,#52,.T.);
#167=EDGE_CURVE('',#202,#203,#53,.T.);
#168=EDGE_CURVE('',#203,#198,#54,.T.);
#169=EDGE_CURVE('',#199,#204,#55,.T.);
#170=EDGE_CURVE('',#205,#204,#56,.T.);
#171=EDGE_CURVE('',#205,#201,#57,.T.);
#172=EDGE_CURVE('',#196,#195,#58,.T.);
#173=EDGE_CURVE('',#194,#197,#59,.T.);
#174=EDGE_CURVE('',#206,#207,#60,.T.);
#175=EDGE_CURVE('',#208,#206,#216,.T.);
#176=EDGE_CURVE('',#209,#208,#61,.T.);
#177=EDGE_CURVE('',#207,#209,#217,.T.);
#178=EDGE_CURVE('',#206,#185,#218,.T.);
#179=EDGE_CURVE('',#182,#207,#219,.T.);
#180=EDGE_CURVE('',#183,#209,#220,.T.);
#181=EDGE_CURVE('',#208,#184,#221,.T.);
#182=VERTEX_POINT('',#382);
#183=VERTEX_POINT('',#383);
#184=VERTEX_POINT('',#393);
#185=VERTEX_POINT('',#395);
#186=VERTEX_POINT('',#406);
#187=VERTEX_POINT('',#407);
#188=VERTEX_POINT('',#409);
#189=VERTEX_POINT('',#411);
#190=VERTEX_POINT('',#414);
#191=VERTEX_POINT('',#415);
#192=VERTEX_POINT('',#417);
#193=VERTEX_POINT('',#419);
#194=VERTEX_POINT('',#423);
#195=VERTEX_POINT('',#428);
#196=VERTEX_POINT('',#432);
#197=VERTEX_POINT('',#437);
#198=VERTEX_POINT('',#441);
#199=VERTEX_POINT('',#443);
#200=VERTEX_POINT('',#451);
#201=VERTEX_POINT('',#458);
#202=VERTEX_POINT('',#510);
#203=VERTEX_POINT('',#515);
#204=VERTEX_POINT('',#528);
#205=VERTEX_POINT('',#533);
#206=VERTEX_POINT('',#616);
#207=VERTEX_POINT('',#617);
#208=VERTEX_POINT('',#619);
#209=VERTEX_POINT('',#625);
#210=CIRCLE('',#294,0.0101600000000316);
#211=CIRCLE('',#295,0.00999282291589404);
#212=CIRCLE('',#296,0.00635);
#213=CIRCLE('',#297,0.00635);
#214=CIRCLE('',#298,0.00635000101841725);
#215=CIRCLE('',#299,0.00635000101841725);
#216=CIRCLE('',#305,0.012532822915894);
#217=CIRCLE('',#306,0.0127000000000316);
#218=CIRCLE('',#307,0.00254);
#219=CIRCLE('',#308,0.00254);
#220=CIRCLE('',#310,0.00254);
#221=CIRCLE('',#312,0.00254);
#222=EDGE_LOOP('',(#62,#63,#64,#65));
#223=EDGE_LOOP('',(#66,#67,#68,#69));
#224=EDGE_LOOP('',(#70,#71,#72,#73));
#225=EDGE_LOOP('',(#74,#75,#76,#77));
#226=EDGE_LOOP('',(#78,#79,#80,#81));
#227=EDGE_LOOP('',(#82,#83,#84,#85));
#228=EDGE_LOOP('',(#86,#87,#88,#89));
#229=EDGE_LOOP('',(#90,#91,#92,#93,#94,#95,#96,#97));
#230=EDGE_LOOP('',(#98,#99,#100,#101));
#231=EDGE_LOOP('',(#102,#103,#104,#105));
#232=EDGE_LOOP('',(#106,#107,#108,#109));
#233=EDGE_LOOP('',(#110,#111,#112,#113));
#234=EDGE_LOOP('',(#114,#115,#116,#117));
#235=EDGE_LOOP('',(#118,#119,#120,#121));
#236=EDGE_LOOP('',(#122,#123,#124,#125));
#237=EDGE_LOOP('',(#126,#127,#128,#129));
#238=EDGE_LOOP('',(#130,#131,#132,#133,#134,#135));
#239=EDGE_LOOP('',(#136,#137,#138,#139,#140,#141));
#240=FACE_BOUND('',#222,.T.);
#241=FACE_BOUND('',#223,.T.);
#242=FACE_BOUND('',#224,.T.);
#243=FACE_BOUND('',#225,.T.);
#244=FACE_BOUND('',#226,.T.);
#245=FACE_BOUND('',#227,.T.);
#246=FACE_BOUND('',#228,.T.);
#247=FACE_BOUND('',#229,.T.);
#248=FACE_BOUND('',#230,.T.);
#249=FACE_BOUND('',#231,.T.);
#250=FACE_BOUND('',#232,.T.);
#251=FACE_BOUND('',#233,.T.);
#252=FACE_BOUND('',#234,.T.);
#253=FACE_BOUND('',#235,.T.);
#254=FACE_BOUND('',#236,.T.);
#255=FACE_BOUND('',#237,.T.);
#256=FACE_BOUND('',#238,.T.);
#257=FACE_BOUND('',#239,.T.);
#258=PLANE('',#293);
#259=PLANE('',#300);
#260=PLANE('',#301);
#261=PLANE('',#302);
#262=PLANE('',#303);
#263=PLANE('',#304);
#264=ADVANCED_FACE('',(#240,#241,#242),#258,.T.);
#265=ADVANCED_FACE('',(#243),#259,.F.);
#266=ADVANCED_FACE('',(#244),#260,.F.);
#267=ADVANCED_FACE('',(#245),#261,.T.);
#268=ADVANCED_FACE('',(#246),#262,.F.);
#269=ADVANCED_FACE('',(#247),#20,.F.);
#270=ADVANCED_FACE('',(#248),#21,.F.);
#271=ADVANCED_FACE('',(#249),#263,.F.);
#272=ADVANCED_FACE('',(#250),#18,.T.);
#273=ADVANCED_FACE('',(#251),#16,.T.);
#274=ADVANCED_FACE('',(#252),#17,.T.);
#275=ADVANCED_FACE('',(#253),#19,.T.);
#276=ADVANCED_FACE('',(#254),#12,.T.);
#277=ADVANCED_FACE('',(#255),#13,.T.);
#278=ADVANCED_FACE('',(#256),#14,.T.);
#279=ADVANCED_FACE('',(#257),#15,.T.);
#280=CLOSED_SHELL('',(#264,#265,#266,#267,#268,#269,#270,#271,#272,#273,
#274,#275,#276,#277,#278,#279));
#281=STYLED_ITEM('',(#282),#289);
#282=PRESENTATION_STYLE_ASSIGNMENT((#283));
#283=SURFACE_STYLE_USAGE(.BOTH.,#284);
#284=SURFACE_SIDE_STYLE('',(#285));
#285=SURFACE_STYLE_FILL_AREA(#286);
#286=FILL_AREA_STYLE('',(#287));
#287=FILL_AREA_STYLE_COLOUR('',#288);
#288=COLOUR_RGB('',0.792156862745098,0.819607843137255,0.933333333333333);
#289=MANIFOLD_SOLID_BREP('Part 1',#280);
#290=SHAPE_DEFINITION_REPRESENTATION(#697,#291);
#291=SHAPE_REPRESENTATION('Part 1',(#292),#692);
#292=AXIS2_PLACEMENT_3D('',#379,#317,#318);
#293=AXIS2_PLACEMENT_3D('',#380,#319,#320);
#294=AXIS2_PLACEMENT_3D('',#381,#321,#322);
#295=AXIS2_PLACEMENT_3D('',#394,#323,#324);
#296=AXIS2_PLACEMENT_3D('',#408,#326,#327);
#297=AXIS2_PLACEMENT_3D('',#412,#329,#330);
#298=AXIS2_PLACEMENT_3D('',#416,#332,#333);
#299=AXIS2_PLACEMENT_3D('',#420,#335,#336);
#300=AXIS2_PLACEMENT_3D('',#421,#337,#338);
#301=AXIS2_PLACEMENT_3D('',#430,#341,#342);
#302=AXIS2_PLACEMENT_3D('',#439,#345,#346);
#303=AXIS2_PLACEMENT_3D('',#449,#349,#350);
#304=AXIS2_PLACEMENT_3D('',#610,#353,#354);
#305=AXIS2_PLACEMENT_3D('',#618,#355,#356);
#306=AXIS2_PLACEMENT_3D('',#626,#357,#358);
#307=AXIS2_PLACEMENT_3D('',#654,#359,#360);
#308=AXIS2_PLACEMENT_3D('',#655,#361,#362);
#309=AXIS2_PLACEMENT_3D('',#656,#363,#364);
#310=AXIS2_PLACEMENT_3D('',#657,#365,#366);
#311=AXIS2_PLACEMENT_3D('',#658,#367,#368);
#312=AXIS2_PLACEMENT_3D('',#659,#369,#370);
#313=AXIS2_PLACEMENT_3D('',#687,#371,#372);
#314=AXIS2_PLACEMENT_3D('',#688,#373,#374);
#315=AXIS2_PLACEMENT_3D('',#689,#375,#376);
#316=AXIS2_PLACEMENT_3D('',#690,#377,#378);
#317=DIRECTION('',(0.,0.,1.));
#318=DIRECTION('',(1.,0.,0.));
#319=DIRECTION('',(0.,1.,0.));
#320=DIRECTION('',(0.,0.,1.));
#321=DIRECTION('',(0.,1.,0.));
#322=DIRECTION('',(0.,0.,1.));
#323=DIRECTION('',(0.,1.,0.));
#324=DIRECTION('',(0.,0.,1.));
#325=DIRECTION('',(-2.73184799366426E-16,0.,-1.));
#326=DIRECTION('',(0.,1.,0.));
#327=DIRECTION('',(0.,0.,1.));
#328=DIRECTION('',(6.82961998416066E-17,0.,1.));
#329=DIRECTION('',(0.,1.,0.));
#330=DIRECTION('',(0.,0.,1.));
#331=DIRECTION('',(1.,0.,0.));
#332=DIRECTION('',(0.,1.,0.));
#333=DIRECTION('',(0.,0.,1.));
#334=DIRECTION('',(1.,0.,0.));
#335=DIRECTION('',(0.,1.,0.));
#336=DIRECTION('',(0.,0.,1.));
#337=DIRECTION('',(-1.,0.,2.73184799366426E-16));
#338=DIRECTION('',(2.73184799366426E-16,0.,1.));
#339=DIRECTION('',(0.,-1.,0.));
#340=DIRECTION('',(0.,-1.,0.));
#341=DIRECTION('',(1.,0.,-6.82961998416066E-17));
#342=DIRECTION('',(-6.82961998416066E-17,0.,-1.));
#343=DIRECTION('',(0.,-1.,0.));
#344=DIRECTION('',(0.,-1.,0.));
#345=DIRECTION('',(0.,0.,-1.));
#346=DIRECTION('',(-1.,0.,0.));
#347=DIRECTION('',(0.,-1.,0.));
#348=DIRECTION('',(0.,-1.,0.));
#349=DIRECTION('',(0.,0.,-1.));
#350=DIRECTION('',(-1.,0.,0.));
#351=DIRECTION('',(0.,-1.,0.));
#352=DIRECTION('',(0.,-1.,0.));
#353=DIRECTION('',(0.,1.,0.));
#354=DIRECTION('',(0.,0.,1.));
#355=DIRECTION('',(0.,1.,0.));
#356=DIRECTION('',(0.,0.,1.));
#357=DIRECTION('',(0.,1.,0.));
#358=DIRECTION('',(0.,0.,1.));
#359=DIRECTION('',(0.518978528768478,1.87645967833385E-15,0.854787275687528));
#360=DIRECTION('',(0.854787275687528,0.,-0.518978528768478));
#361=DIRECTION('',(0.523162109445641,0.,-0.852233188300237));
#362=DIRECTION('',(-0.852233188300237,0.,-0.523162109445641));
#363=DIRECTION('',(0.,1.,0.));
#364=DIRECTION('',(0.,0.,1.));
#365=DIRECTION('',(0.523162109442582,0.,0.852233188302115));
#366=DIRECTION('',(0.852233188302115,0.,-0.523162109442582));
#367=DIRECTION('',(0.,1.,0.));
#368=DIRECTION('',(0.,0.,1.));
#369=DIRECTION('',(0.518978528755054,1.71859293168113E-11,-0.854787275695678));
#370=DIRECTION('',(-0.854787275695679,0.,-0.518978528755054));
#371=DIRECTION('',(0.,-1.,0.));
#372=DIRECTION('',(0.,0.,-1.));
#373=DIRECTION('',(0.,-1.,0.));
#374=DIRECTION('',(0.,0.,-1.));
#375=DIRECTION('',(0.,-1.,0.));
#376=DIRECTION('',(0.,0.,-1.));
#377=DIRECTION('',(0.,-1.,0.));
#378=DIRECTION('',(0.,0.,-1.));
#379=CARTESIAN_POINT('',(0.,0.,0.));
#380=CARTESIAN_POINT('',(0.,0.00254,0.));
#381=CARTESIAN_POINT('',(0.,0.00254,-0.0381));
#382=CARTESIAN_POINT('',(0.00865868919313042,0.00254,-0.0327846729680323));
#383=CARTESIAN_POINT('',(-0.00865868919312742,0.00254,-0.032784672967967));
#384=CARTESIAN_POINT('',(-0.00865868919315438,0.00254,-0.0327846729679504));
#385=CARTESIAN_POINT('',(-0.00620656100076599,0.00254,-0.0287901462432392));
#386=CARTESIAN_POINT('',(-0.00318905963116169,0.00254000000000001,-0.0225386321858298));
#387=CARTESIAN_POINT('',(-0.000956263202904146,0.00254,-0.013369263060553));
#388=CARTESIAN_POINT('',(-0.000377789000244155,0.00254,-0.00645148108722461));
#389=CARTESIAN_POINT('',(-0.000922558721750541,0.00254000000000001,0.000600499201530431));
#390=CARTESIAN_POINT('',(-0.00307331104676943,0.00254,0.00965077489238141));
#391=CARTESIAN_POINT('',(-0.0061051084861562,0.00254,0.0160588033978109));
#392=CARTESIAN_POINT('',(-0.00854173787680906,0.00254,0.0200720711598353));
#393=CARTESIAN_POINT('',(-0.00854173787680906,0.00254,0.0200720711598353));
#394=CARTESIAN_POINT('',(-8.07349832687129E-31,0.00254,0.0252581316947985));
#395=CARTESIAN_POINT('',(0.00854173787670496,0.00254,0.0200720711596638));
#396=CARTESIAN_POINT('',(0.00854173787670496,0.00254,0.0200720711596638));
#397=CARTESIAN_POINT('',(0.00610924552928132,0.00254,0.0160656173440907));
#398=CARTESIAN_POINT('',(0.00312093741174421,0.00253999999999999,0.00980038378789041));
#399=CARTESIAN_POINT('',(0.000927382508051693,0.00254,0.000621755534354479));
#400=CARTESIAN_POINT('',(0.000377475993971671,0.00254,-0.0062987359679888));
#401=CARTESIAN_POINT('',(0.000951341387168765,0.00254000000000001,-0.0133480294558247));
#402=CARTESIAN_POINT('',(0.00314089380244792,0.00253999999999999,-0.022389585357832));
#403=CARTESIAN_POINT('',(0.00620236649127793,0.00254,-0.0287833133705016));
#404=CARTESIAN_POINT('',(0.00865868919313042,0.00254,-0.0327846729680323));
#405=CARTESIAN_POINT('',(0.00508,0.00254,-0.04445));
#406=CARTESIAN_POINT('',(0.00508,0.00254,-0.03429));
#407=CARTESIAN_POINT('',(0.00508,0.00254,-0.04191));
#408=CARTESIAN_POINT('',(0.,0.00254,-0.0381));
#409=CARTESIAN_POINT('',(-0.00508,0.00254,-0.03429));
#410=CARTESIAN_POINT('',(-0.00508,0.00254,-0.04445));
#411=CARTESIAN_POINT('',(-0.00508,0.00254,-0.04191));
#412=CARTESIAN_POINT('',(0.,0.00254,-0.0381));
#413=CARTESIAN_POINT('',(0.,0.00254,0.03048));
#414=CARTESIAN_POINT('',(-0.00381000169736185,0.00254,0.03048));
#415=CARTESIAN_POINT('',(0.00381000169736185,0.00254,0.03048));
#416=CARTESIAN_POINT('',(-8.67361737988404E-19,0.00254,0.0254));
#417=CARTESIAN_POINT('',(-0.00381000169736184,0.00254,0.02032));
#418=CARTESIAN_POINT('',(0.,0.00254,0.02032));
#419=CARTESIAN_POINT('',(0.00381000169736184,0.00254,0.02032));
#420=CARTESIAN_POINT('',(-8.67361737988404E-19,0.00254,0.0254));
#421=CARTESIAN_POINT('',(0.00508,0.02794,-0.04445));
#422=CARTESIAN_POINT('',(0.00508,0.0233397847689752,-0.04191));
#423=CARTESIAN_POINT('',(0.00508,0.0229345064336927,-0.04191));
#424=CARTESIAN_POINT('',(0.00508,0.0229345064336927,-0.04191));
#425=CARTESIAN_POINT('',(0.00508,0.0225358414359974,-0.0393699092251336));
#426=CARTESIAN_POINT('',(0.00508,0.0221365867066081,-0.0368299110456386));
#427=CARTESIAN_POINT('',(0.00508,0.0217367782503714,-0.03429));
#428=CARTESIAN_POINT('',(0.00508,0.0217367782503714,-0.03429));
#429=CARTESIAN_POINT('',(0.00508,0.0233397847689752,-0.03429));
#430=CARTESIAN_POINT('',(-0.00508,0.02794,-0.04445));
#431=CARTESIAN_POINT('',(-0.00508,0.0233397847689752,-0.03429));
#432=CARTESIAN_POINT('',(-0.00508000000000013,0.0217367125318331,-0.03429));
#433=CARTESIAN_POINT('',(-0.00508,0.021736712531833,-0.03429));
#434=CARTESIAN_POINT('',(-0.00508,0.0221365140751579,-0.0368299110811338));
#435=CARTESIAN_POINT('',(-0.00508,0.0225357621333404,-0.0393699092566006));
#436=CARTESIAN_POINT('',(-0.00508,0.0229344206248652,-0.0419100000000122));
#437=CARTESIAN_POINT('',(-0.00508,0.0229344206248652,-0.0419100000000122));
#438=CARTESIAN_POINT('',(-0.00508,0.0233397847689752,-0.04191));
#439=CARTESIAN_POINT('',(0.,0.01524,0.02032));
#440=CARTESIAN_POINT('',(0.00381000169736184,0.0233397847689752,0.02032));
#441=CARTESIAN_POINT('',(0.00381000169736184,0.0121228624552344,0.02032));
#442=CARTESIAN_POINT('',(-0.00381000169736184,0.0233397847689752,0.02032));
#443=CARTESIAN_POINT('',(-0.00381000169736182,0.0121228894032581,0.02032));
#444=CARTESIAN_POINT('',(0.00381000169736183,0.0121228624552344,0.02032));
#445=CARTESIAN_POINT('',(0.00265214874682611,0.0114399253693196,0.02032));
#446=CARTESIAN_POINT('',(5.54375912666409E-6,0.0107266400551825,0.02032));
#447=CARTESIAN_POINT('',(-0.00265213244601935,0.0114399104317366,0.02032));
#448=CARTESIAN_POINT('',(-0.0038100016973618,0.0121228894032581,0.02032));
#449=CARTESIAN_POINT('',(0.,0.01524,0.03048));
#450=CARTESIAN_POINT('',(0.00381000169736185,0.0233397847689752,0.03048));
#451=CARTESIAN_POINT('',(0.00381000169736184,0.0105184155342324,0.03048));
#452=CARTESIAN_POINT('',(-0.00381000149231477,0.0105183708932227,0.0304800000561438));
#453=CARTESIAN_POINT('',(-0.00264640710797907,0.00984638619375934,0.0304800000561438));
#454=CARTESIAN_POINT('',(-0.000670610994060613,0.00932012849133649,0.03047999998724));
#455=CARTESIAN_POINT('',(0.00200698926190536,0.0096767839298015,0.030480000002552));
#456=CARTESIAN_POINT('',(0.00322822293670083,0.010182373513397,0.03048));
#457=CARTESIAN_POINT('',(0.00381000129448559,0.0105184167218179,0.03048));
#458=CARTESIAN_POINT('',(-0.00381000169736185,0.0105183705381676,0.03048));
#459=CARTESIAN_POINT('',(-0.00381000169736185,0.0233397847689752,0.03048));
#460=CARTESIAN_POINT('',(0.00639314453686025,0.0129711443912098,0.03048));
#461=CARTESIAN_POINT('',(0.00638874281271486,0.0146531652993282,0.02032));
#462=CARTESIAN_POINT('',(0.00628016625800566,0.0127969415240609,0.03048));
#463=CARTESIAN_POINT('',(0.00628161090093813,0.0144790824304971,0.02032));
#464=CARTESIAN_POINT('',(0.00615754208475145,0.0126234599899129,0.03048));
#465=CARTESIAN_POINT('',(0.0061649687456029,0.0143054846505665,0.02032));
#466=CARTESIAN_POINT('',(0.00571364313963655,0.0120502512186266,0.03048));
#467=CARTESIAN_POINT('',(0.00574144745774911,0.0137309889920462,0.02032));
#468=CARTESIAN_POINT('',(0.00534621386798164,0.0116592392498615,0.03048));
#469=CARTESIAN_POINT('',(0.00538894020239448,0.0133375927806628,0.02032));
#470=CARTESIAN_POINT('',(0.00449612841711136,0.0109401640144209,0.03048));
#471=CARTESIAN_POINT('',(0.00456905276971927,0.0126100681799604,0.02032));
#472=CARTESIAN_POINT('',(0.00401325878111003,0.010612450034752,0.03048));
#473=CARTESIAN_POINT('',(0.00410145436778869,0.0122762785811438,0.02032));
#474=CARTESIAN_POINT('',(0.0029500283520222,0.0100663098674475,0.03048));
#475=CARTESIAN_POINT('',(0.00306775990905081,0.0117139872653133,0.02032));
#476=CARTESIAN_POINT('',(0.00236973288431324,0.00984838323880657,0.03048));
#477=CARTESIAN_POINT('',(0.00250171650052246,0.0114859787338806,0.02032));
#478=CARTESIAN_POINT('',(0.00115313903382365,0.00955932708142099,0.03048));
#479=CARTESIAN_POINT('',(0.00131109017000884,0.0111731330583498,0.02032));
#480=CARTESIAN_POINT('',(0.000517271459285305,0.00948857786715421,0.03048));
#481=CARTESIAN_POINT('',(0.00068692238182422,0.0110886802594014,0.02032));
#482=CARTESIAN_POINT('',(-0.00075257715163678,0.00950818667485016,0.03048));
#483=CARTESIAN_POINT('',(-0.000563311831157816,0.0110783793801792,0.02032));
#484=CARTESIAN_POINT('',(-0.00138595707625204,0.00959853541453706,0.03048));
#485=CARTESIAN_POINT('',(-0.00118878642910885,0.0111525361760612,0.02032));
#486=CARTESIAN_POINT('',(-0.00259304587628924,0.00992501770807891,0.03048));
#487=CARTESIAN_POINT('',(-0.00238440594320757,0.0114457211912257,0.02032));
#488=CARTESIAN_POINT('',(-0.00316633589158867,0.0101607578270073,0.03048));
#489=CARTESIAN_POINT('',(-0.00295412944898031,0.0116643719577794,0.02032));
#490=CARTESIAN_POINT('',(-0.00421219658098734,0.0107394662562289,0.03048));
#491=CARTESIAN_POINT('',(-0.0039969485619773,0.0122095545468741,0.02032));
#492=CARTESIAN_POINT('',(-0.00468471738540431,0.0110819332287031,0.03048));
#493=CARTESIAN_POINT('',(-0.00446998340175226,0.0125355941182841,0.02032));
#494=CARTESIAN_POINT('',(-0.00551219512104022,0.0118269131378497,0.03048));
#495=CARTESIAN_POINT('',(-0.00530174709675458,0.0132495105017367,0.02032));
#496=CARTESIAN_POINT('',(-0.00586737619197285,0.0122290835448137,0.03048));
#497=CARTESIAN_POINT('',(-0.00566068856464706,0.0136370449735397,0.02032));
#498=CARTESIAN_POINT('',(-0.00628329914246096,0.0128018631300754,0.03048));
#499=CARTESIAN_POINT('',(-0.00608338865707286,0.0141910760690865,0.02032));
#500=CARTESIAN_POINT('',(-0.00639200330794195,0.0129649434312973,0.03048));
#501=CARTESIAN_POINT('',(-0.0061941759707602,0.0143490448338013,0.02032));
#502=CARTESIAN_POINT('',(-0.00649246750339339,0.0131284616147956,0.03048));
#503=CARTESIAN_POINT('',(-0.00629686376386699,0.0145076366304855,0.02032));
#504=CARTESIAN_POINT('',(0.0038100013954495,0.0105184160569214,0.0304800000826482));
#505=CARTESIAN_POINT('',(0.00460510817209729,0.0110719731820658,0.0298836697914526));
#506=CARTESIAN_POINT('',(0.00549438650744193,0.0120375189398304,0.0288130578812327));
#507=CARTESIAN_POINT('',(0.00620125081940053,0.0132412609382018,0.0270209316146875));
#508=CARTESIAN_POINT('',(0.00634992079601697,0.0136542663819754,0.0259647758554308));
#509=CARTESIAN_POINT('',(0.00635000095425507,0.0137479360380793,0.0254009026939446));
#510=CARTESIAN_POINT('',(0.00635000095425534,0.0137479360380797,0.0254009026939448));
#511=CARTESIAN_POINT('',(0.00635000095425534,0.0137479360380797,0.0254009026939448));
#512=CARTESIAN_POINT('',(0.00635000099702961,0.0137479860223504,0.0254006017983297));
#513=CARTESIAN_POINT('',(0.00635000101841767,0.0137480359744113,0.0254003008973661));
#514=CARTESIAN_POINT('',(0.00635000101841725,0.0137480858942585,0.0253999999910532));
#515=CARTESIAN_POINT('',(0.00635,0.0137480843603991,0.0253999997361787));
#516=CARTESIAN_POINT('',(0.00635000050920862,0.0137480843603991,0.0253999997361787));
#517=CARTESIAN_POINT('',(0.00635000048780771,0.0138335394236212,0.0248848944149086));
#518=CARTESIAN_POINT('',(0.00622007832759571,0.0137956830471603,0.0238431070173785));
#519=CARTESIAN_POINT('',(0.0055067211977099,0.0131481032438965,0.0219897280110596));
#520=CARTESIAN_POINT('',(0.00458665572023247,0.0124890920188106,0.0209024907766535));
#521=CARTESIAN_POINT('',(0.00381000169736184,0.0121228624552344,0.02032));
#522=CARTESIAN_POINT('',(-0.00381000169736181,0.0121228894032581,0.02032));
#523=CARTESIAN_POINT('',(-0.00458731827046157,0.0124894485454298,0.0209029876895467));
#524=CARTESIAN_POINT('',(-0.00550447371710732,0.0131462486713129,0.0219871372873357));
#525=CARTESIAN_POINT('',(-0.00621942416953438,0.0137952225904018,0.0238391701398201));
#526=CARTESIAN_POINT('',(-0.00635000104069594,0.0138335366723587,0.0248849164567918));
#527=CARTESIAN_POINT('',(-0.00635000101841725,0.0137480847590569,0.0254000002746538));
#528=CARTESIAN_POINT('',(-0.00635000101841724,0.0137480847590569,0.0254000002746538));
#529=CARTESIAN_POINT('',(-0.00635000095425544,0.0137479349494333,0.0254009026932721));
#530=CARTESIAN_POINT('',(-0.00635000099701621,0.0137479849181653,0.0254006018924115));
#531=CARTESIAN_POINT('',(-0.00635000101840423,0.0137480348547078,0.0254003010862056));
#532=CARTESIAN_POINT('',(-0.00635000101841725,0.0137480847590569,0.0254000002746538));
#533=CARTESIAN_POINT('',(-0.00635000095425544,0.0137479349494333,0.0254009026932721));
#534=CARTESIAN_POINT('',(-0.00635000095425544,0.0137479349494333,0.025400902693272));
#535=CARTESIAN_POINT('',(-0.00634992085941138,0.0136543389254605,0.0259643303291696));
#536=CARTESIAN_POINT('',(-0.00620137736586566,0.0132426243241556,0.0270170924459371));
#537=CARTESIAN_POINT('',(-0.00550188743102554,0.0120470647063013,0.0288014603796455));
#538=CARTESIAN_POINT('',(-0.00460228540066658,0.011069882557115,0.0298857870387835));
#539=CARTESIAN_POINT('',(-0.00381000136503388,0.0105183712715316,0.0304800002492461));
#540=CARTESIAN_POINT('',(0.00510816419073389,0.0213516260403259,-0.0316528855049948));
#541=CARTESIAN_POINT('',(0.00519028149890312,0.0234575103092528,-0.04445));
#542=CARTESIAN_POINT('',(0.00519084244509289,0.0234718956779783,-0.0445374175344528));
#543=CARTESIAN_POINT('',(0.00481417087750575,0.0210349271140152,-0.0316528855049948));
#544=CARTESIAN_POINT('',(0.00491225670578105,0.0231357160574595,-0.04445));
#545=CARTESIAN_POINT('',(0.00491292673348736,0.0231500666198392,-0.0445374175344528));
#546=CARTESIAN_POINT('',(0.00448091709510704,0.0207351080602329,-0.0316528855049947));
#547=CARTESIAN_POINT('',(0.00459502664974238,0.0228291449220973,-0.04445));
#548=CARTESIAN_POINT('',(0.00459580613608108,0.0228434493607728,-0.0445374175344528));
#549=CARTESIAN_POINT('',(0.00367000880017016,0.0201425845830735,-0.0316528855049947));
#550=CARTESIAN_POINT('',(0.00381829858510819,0.0222179306767074,-0.04445));
#551=CARTESIAN_POINT('',(0.00381931155778956,0.0222321074380947,-0.0445374175344528));
#552=CARTESIAN_POINT('',(0.00317687096644541,0.0198630026678349,-0.0316528855049947));
#553=CARTESIAN_POINT('',(0.00334311205385626,0.0219256500149772,-0.04445));
#554=CARTESIAN_POINT('',(0.00334424765250952,0.0219397400307854,-0.0445374175344528));
#555=CARTESIAN_POINT('',(0.00211907996492388,0.0194284631042353,-0.0316528855049947));
#556=CARTESIAN_POINT('',(0.00231802866318944,0.0214611461612709,-0.04445));
#557=CARTESIAN_POINT('',(0.00231938768867067,0.0214750314899706,-0.0445374175344528));
#558=CARTESIAN_POINT('',(0.00155476174923876,0.01927391041969,-0.0316528855049947));
#559=CARTESIAN_POINT('',(0.0017684470130098,0.0212893330099773,-0.04445));
#560=CARTESIAN_POINT('',(0.00176990670448283,0.021303100431828,-0.0445374175344528));
#561=CARTESIAN_POINT('',(0.000404863841216132,0.0191106082871521,-0.0316528855049947));
#562=CARTESIAN_POINT('',(0.000643254586895577,0.0210883578766519,-0.04445));
#563=CARTESIAN_POINT('',(0.00064488304237527,0.0211018679529231,-0.0445374175344528));
#564=CARTESIAN_POINT('',(-0.000180171520750719,0.0191019361419442,-0.0316528855049948));
#565=CARTESIAN_POINT('',(6.81764464289713E-5,0.0210592910307778,-0.04445));
#566=CARTESIAN_POINT('',(6.98729200352421E-5,0.0210726617901391,-0.0445374175344528));
#567=CARTESIAN_POINT('',(-0.00131712057373677,0.0192247908779021,-0.0316528855049947));
#568=CARTESIAN_POINT('',(-0.00105432636981193,0.0211402058962861,-0.04445));
#569=CARTESIAN_POINT('',(-0.00105253121345973,0.0211532901629329,-0.0445374175344528));
#570=CARTESIAN_POINT('',(-0.00186859980871393,0.0193560220623373,-0.0316528855049947));
#571=CARTESIAN_POINT('',(-0.00160131337735204,0.0212499120414512,-0.04445));
#572=CARTESIAN_POINT('',(-0.00159948753443788,0.0212628492698056,-0.0445374175344528));
#573=CARTESIAN_POINT('',(-0.00289585991560073,0.0197297051779698,-0.0316528855049947));
#574=CARTESIAN_POINT('',(-0.00262474244078827,0.0215813673997368,-0.04445));
#575=CARTESIAN_POINT('',(-0.00262289042788298,0.0215940161688112,-0.0445374175344528));
#576=CARTESIAN_POINT('',(-0.00337152427317161,0.0199717113404576,-0.0316528855049947));
#577=CARTESIAN_POINT('',(-0.00310105425597045,0.021802682289363,-0.04445));
#578=CARTESIAN_POINT('',(-0.00309920666587064,0.0218151897156325,-0.0445374175344528));
#579=CARTESIAN_POINT('',(-0.00422521254252724,0.0205267240758511,-0.0316528855049947));
#580=CARTESIAN_POINT('',(-0.00396014094193364,0.0223185686965158,-0.04445));
#581=CARTESIAN_POINT('',(-0.00395833022860554,0.0223308088494754,-0.0445374175344528));
#582=CARTESIAN_POINT('',(-0.0046033901010346,0.0208393892777353,-0.0316528855049948));
#583=CARTESIAN_POINT('',(-0.00434305494044512,0.0226127990816682,-0.04445));
#584=CARTESIAN_POINT('',(-0.00434127658190351,0.0226249133057532,-0.0445374175344528));
#585=CARTESIAN_POINT('',(-0.0050679412785224,0.0213047084582781,-0.0316528855049948));
#586=CARTESIAN_POINT('',(-0.00481627638672423,0.0230541325693106,-0.04445));
#587=CARTESIAN_POINT('',(-0.00481455725509046,0.0230660829462927,-0.0445374175344528));
#588=CARTESIAN_POINT('',(-0.00519568826284509,0.0214440069413245,-0.0316528855049948));
#589=CARTESIAN_POINT('',(-0.0049468057130618,0.0231866481145372,-0.04445));
#590=CARTESIAN_POINT('',(-0.00494510558770316,0.023198552157035,-0.0445374175344528));
#591=CARTESIAN_POINT('',(-0.00531522952902482,0.021584999241934,-0.0316528855049948));
#592=CARTESIAN_POINT('',(-0.0050693241732199,0.0233211175936259,-0.04445));
#593=CARTESIAN_POINT('',(-0.00506764438517693,0.0233329770785029,-0.0445374175344528));
#594=CARTESIAN_POINT('',(-0.00508000000000013,0.0217367125318331,-0.03429));
#595=CARTESIAN_POINT('',(-0.00455814425909276,0.0210673989806985,-0.0335941923454568));
#596=CARTESIAN_POINT('',(-0.00354967551260609,0.0201165805573996,-0.0326751157119068));
#597=CARTESIAN_POINT('',(-0.00164421236400788,0.0192945389973221,-0.0318964341118473));
#598=CARTESIAN_POINT('',(-4.92183094350666E-6,0.0190606628379841,-0.031677483498324));
#599=CARTESIAN_POINT('',(0.00163373249885752,0.0192916002992927,-0.031893643837894));
#600=CARTESIAN_POINT('',(0.0035442345530214,0.0201117319302728,-0.0326705726530788));
#601=CARTESIAN_POINT('',(0.00455730546570059,0.0210666203647077,-0.0335930739542675));
#602=CARTESIAN_POINT('',(0.00508,0.0217367782503714,-0.03429));
#603=CARTESIAN_POINT('',(0.00508,0.0229345064336926,-0.04191));
#604=CARTESIAN_POINT('',(0.00452567655175492,0.0224436819936009,-0.0426490979309934));
#605=CARTESIAN_POINT('',(0.00310093599890864,0.0215053639891383,-0.0439050555793136));
#606=CARTESIAN_POINT('',(1.52950092658783E-5,0.0208722235949118,-0.0447201354376151));
#607=CARTESIAN_POINT('',(-0.00309148282848867,0.0214986437071122,-0.0439143371970726));
#608=CARTESIAN_POINT('',(-0.00452506936992205,0.0224428117424813,-0.0426499075067664));
#609=CARTESIAN_POINT('',(-0.00507999999998962,0.0229344206248541,-0.0419100000000139));
#610=CARTESIAN_POINT('',(0.,0.,0.));
#611=CARTESIAN_POINT('',(0.0107128975569513,0.,0.0187538656965919));
#612=CARTESIAN_POINT('',(0.00562492301871093,0.,0.0103736810584521));
#613=CARTESIAN_POINT('',(0.000550422843508937,0.,-0.00637885362745434));
#614=CARTESIAN_POINT('',(0.00569362043851072,0.,-0.0230994723260181));
#615=CARTESIAN_POINT('',(0.010823361491413,0.,-0.0314558412100404));
#616=CARTESIAN_POINT('',(0.0107128975569513,0.,0.0187538656965919));
#617=CARTESIAN_POINT('',(0.01082336149144,0.,-0.0314558412100239));
#618=CARTESIAN_POINT('',(-8.07349832687129E-31,0.,0.0252581316947985));
#619=CARTESIAN_POINT('',(-0.0107128975570534,0.,0.0187538656967602));
#620=CARTESIAN_POINT('',(-0.0108233614914417,0.,-0.0314558412099663));
#621=CARTESIAN_POINT('',(-0.00569362043857195,0.,-0.0230994723259325));
#622=CARTESIAN_POINT('',(-0.000550422843574866,0.,-0.00637885362732236));
#623=CARTESIAN_POINT('',(-0.00562492301878438,0.,0.0103736810586011));
#624=CARTESIAN_POINT('',(-0.0107128975570534,0.,0.0187538656967602));
#625=CARTESIAN_POINT('',(-0.0108233614914148,0.,-0.0314558412099828));
#626=CARTESIAN_POINT('',(0.,0.,-0.0381));
#627=CARTESIAN_POINT('',(0.0107128975569513,0.,0.0187538656965919));
#628=CARTESIAN_POINT('',(0.0107128975569513,0.00254,0.0187538656965919));
#629=CARTESIAN_POINT('',(0.00854173787670496,0.00254,0.0200720711596639));
#630=CARTESIAN_POINT('',(0.00837026427633425,-8.53732170718913E-14,0.0148954148958906));
#631=CARTESIAN_POINT('',(0.00837026427609728,0.00253999999989076,0.0148954148962253));
#632=CARTESIAN_POINT('',(0.00610924552891707,0.00254,0.0160656173442389));
#633=CARTESIAN_POINT('',(0.00551880307845577,1.92510890750402E-14,0.00890304787884171));
#634=CARTESIAN_POINT('',(0.00551880307850991,0.00254000000002462,0.00890304787876667));
#635=CARTESIAN_POINT('',(0.00312093741182442,0.00254,0.00980038378786201));
#636=CARTESIAN_POINT('',(0.00344590053152835,-3.62740943443654E-15,0.000220165366467036));
#637=CARTESIAN_POINT('',(0.0034459005315171,0.00253999999999538,0.00022016536648054));
#638=CARTESIAN_POINT('',(0.000927382508039433,0.00254,0.000621755534352445));
#639=CARTESIAN_POINT('',(0.00292855399458342,9.67764949219295E-16,-0.00629792653617422));
#640=CARTESIAN_POINT('',(0.00292855399459062,0.00254000000000114,-0.00629792653617533));
#641=CARTESIAN_POINT('',(0.000377475993963641,0.00254,-0.00629873596795878));
#642=CARTESIAN_POINT('',(0.00346850625315932,-2.54058703296507E-16,-0.0129371992578183));
#643=CARTESIAN_POINT('',(0.00346850625314174,0.00254000000000004,-0.0129371992578273));
#644=CARTESIAN_POINT('',(0.000951341387213147,0.00254,-0.0133480294559427));
#645=CARTESIAN_POINT('',(0.0055372162137925,1.49312719721146E-16,-0.021489022155896));
#646=CARTESIAN_POINT('',(0.00553721621388247,0.00253999999999824,-0.0214890221558432));
#647=CARTESIAN_POINT('',(0.00314089380220708,0.00253999999999999,-0.0223895853572032));
#648=CARTESIAN_POINT('',(0.0084579937838048,0.,-0.0276026476653203));
#649=CARTESIAN_POINT('',(0.00845799378340765,0.00254000000000864,-0.0276026476655573));
#650=CARTESIAN_POINT('',(0.00620236649234895,0.00254,-0.0287833133732917));
#651=CARTESIAN_POINT('',(0.010823361491413,0.,-0.0314558412100404));
#652=CARTESIAN_POINT('',(0.010823361491413,0.00254,-0.0314558412100404));
#653=CARTESIAN_POINT('',(0.00865868919313022,0.00254,-0.032784672968032));
#654=CARTESIAN_POINT('',(0.00854173787670496,0.,0.0200720711596638));
#655=CARTESIAN_POINT('',(0.00865868919313042,0.,-0.0327846729680323));
#656=CARTESIAN_POINT('',(0.,0.,-0.0381));
#657=CARTESIAN_POINT('',(-0.00865868919312742,0.,-0.032784672967967));
#658=CARTESIAN_POINT('',(-8.07349832687129E-31,0.,0.0252581316947985));
#659=CARTESIAN_POINT('',(-0.00854173787678641,0.,0.0200720711597979));
#660=CARTESIAN_POINT('',(-0.0108233614914418,0.,-0.0314558412099662));
#661=CARTESIAN_POINT('',(-0.0108233614914418,0.00254,-0.0314558412099662));
#662=CARTESIAN_POINT('',(-0.00865868919315438,0.00254,-0.0327846729679504));
#663=CARTESIAN_POINT('',(-0.00846203297369451,0.,-0.0276092275218063));
#664=CARTESIAN_POINT('',(-0.00846203297327555,0.00254,-0.0276092275220223));
#665=CARTESIAN_POINT('',(-0.00620656100031384,0.00254,-0.0287901462435526));
#666=CARTESIAN_POINT('',(-0.00558296656887679,1.50042359848376E-17,-0.0216305905269002));
#667=CARTESIAN_POINT('',(-0.005582966568972,0.00254000000000001,-0.021630590526852));
#668=CARTESIAN_POINT('',(-0.00318905963126589,0.00253999999999999,-0.0225386321857647));
#669=CARTESIAN_POINT('',(-0.0034731005889305,-3.54154008305902E-17,-0.0129571489401007));
#670=CARTESIAN_POINT('',(-0.00347310058891146,0.00253999999999997,-0.012957148940109));
#671=CARTESIAN_POINT('',(-0.000956263202884466,0.00254,-0.0133692630605671));
#672=CARTESIAN_POINT('',(-0.00292884878830879,1.3926227654138E-16,-0.00644180973079796));
#673=CARTESIAN_POINT('',(-0.0029288487883183,0.00254000000000012,-0.00644180973079872));
#674=CARTESIAN_POINT('',(-0.000377789000252507,0.00254,-0.00645148108723072));
#675=CARTESIAN_POINT('',(-0.00344139853663937,-5.2163370533493E-16,0.000200192707047549));
#676=CARTESIAN_POINT('',(-0.0034413985366204,0.00253999999999957,0.000200192707058913));
#677=CARTESIAN_POINT('',(-0.000922558721736862,0.00254,0.00060049920155482));
#678=CARTESIAN_POINT('',(-0.00547356073608863,2.75636350703495E-15,0.00876093309124737));
#679=CARTESIAN_POINT('',(-0.00547356073618347,0.00254000000000227,0.00876093309118398));
#680=CARTESIAN_POINT('',(-0.00307331104683359,0.00254,0.00965077489223716));
#681=CARTESIAN_POINT('',(-0.0083662800605595,-1.22169164191699E-14,0.0148888526649843));
#682=CARTESIAN_POINT('',(-0.00836628006014219,0.00253999999998992,0.0148888526652671));
#683=CARTESIAN_POINT('',(-0.00610510848587331,0.00254,0.016058803398449));
#684=CARTESIAN_POINT('',(-0.0107128975570534,0.,0.0187538656967601));
#685=CARTESIAN_POINT('',(-0.0107128975570534,0.00254,0.0187538656967601));
#686=CARTESIAN_POINT('',(-0.00854173787680906,0.00254,0.0200720711598353));
#687=CARTESIAN_POINT('',(0.,0.0233397847689752,-0.0381));
#688=CARTESIAN_POINT('',(0.,0.0233397847689752,-0.0381));
#689=CARTESIAN_POINT('',(-8.67361737988404E-19,0.0233397847689752,0.0254));
#690=CARTESIAN_POINT('',(-8.67361737988404E-19,0.0233397847689752,0.0254));
#691=MECHANICAL_DESIGN_GEOMETRIC_PRESENTATION_REPRESENTATION('',(#281),
#692);
#692=(
GEOMETRIC_REPRESENTATION_CONTEXT(3)
GLOBAL_UNCERTAINTY_ASSIGNED_CONTEXT((#693))
GLOBAL_UNIT_ASSIGNED_CONTEXT((#696,#695,#694))
REPRESENTATION_CONTEXT('Part 1','TOP_LEVEL_ASSEMBLY_PART')
);
#693=UNCERTAINTY_MEASURE_WITH_UNIT(LENGTH_MEASURE(2.E-5),#696,
'DISTANCE_ACCURACY_VALUE','Maximum Tolerance applied to model');
#694=(
NAMED_UNIT(*)
SI_UNIT($,.STERADIAN.)
SOLID_ANGLE_UNIT()
);
#695=(
NAMED_UNIT(*)
PLANE_ANGLE_UNIT()
SI_UNIT($,.RADIAN.)
);
#696=(
LENGTH_UNIT()
NAMED_UNIT(*)
SI_UNIT($,.METRE.)
);
#697=PRODUCT_DEFINITION_SHAPE('','',#698);
#698=PRODUCT_DEFINITION('','',#700,#699);
#699=PRODUCT_DEFINITION_CONTEXT('',#706,'design');
#700=PRODUCT_DEFINITION_FORMATION_WITH_SPECIFIED_SOURCE('','',#702,
 .NOT_KNOWN.);
#701=PRODUCT_RELATED_PRODUCT_CATEGORY('','',(#702));
#702=PRODUCT('Part 1','Part 1','Part 1',(#704));
#703=PRODUCT_CATEGORY('','');
#704=PRODUCT_CONTEXT('',#706,'mechanical');
#705=APPLICATION_PROTOCOL_DEFINITION('international standard',
'ap242_managed_model_based_3d_engineering',2020,#706);
#706=APPLICATION_CONTEXT('managed model based 3d engineering');
ENDSEC;
END-ISO-10303-21;
